<?xml version="1.0" encoding="utf-8"?>
<!-- Generator: Adobe Illustrator 27.5.0, SVG Export Plug-In . SVG Version: 6.00 Build 0)  -->
<svg version="1.1" xmlns="http://www.w3.org/2000/svg" xmlns:xlink="http://www.w3.org/1999/xlink" x="0px" y="0px"
	 viewBox="0 0 3710 3710" style="enable-background:new 0 0 3710 3710;" xml:space="preserve">
<g id="Background">
	<g>
		<g>
			<rect style="fill:#FFFFFF;" width="3710" height="3710"/>
		</g>
	</g>
</g>
<g id="Illustration">
	<g>
		<path style="fill:#F4F7FA;" d="M3269.224,1574.702c-73.879-483.571-376.781-1077.673-975.199-1139.846
			c0,0-454.347-55.264-902.233,28.495c-265.821,49.711-498.907,197.689-646.394,410.37
			c-147.489,212.681-196.754,472.017-136.964,719.262c38.833,160.588,65.075,326.79,57.873,491.803
			c-12.534,287.19-5.323,555.262,273.389,726.534c248.857,152.927,562.048,287.803,860.837,311.427
			c203.055,16.054,430.767-9.925,626.474-62.791C3424.369,2790.538,3343.103,2058.273,3269.224,1574.702z"/>
		<g>
			<g>
				<linearGradient id="SVGID_1_" gradientUnits="userSpaceOnUse" x1="1374.4904" y1="2358.2366" x2="138.638" y2="3852.0564">
					<stop  offset="0.0036" style="stop-color:#F36F56"/>
					<stop  offset="1" style="stop-color:#FFC444"/>
				</linearGradient>
				<path style="fill:url(#SVGID_1_);" d="M656.162,2723.827c-49.202,1.688-98.806-11.982-139.174-42.039
					c-89.415-66.56-99.036-187.529-21.356-269.343l1135.28-1204.115c37.143-39.104,90.833-60.63,147.05-59.096
					c55.965,1.528,108.946,25.76,145.336,66.341l380.11,423.868l431.917-474.902c64.608-71.044,176.514-75.362,249.846-10.371
					c72.885,64.592,80.671,173.839,17.494,244.713l-559.966,628.17c-34.88,39.129-85.658,61.978-139.292,62.549
					c-53.87,0.573-105.313-21.381-140.9-60.273l-384.546-420.246L814.917,2653.213
					C773.567,2697.682,715.153,2721.802,656.162,2723.827z"/>
				<g>
					
						<linearGradient id="SVGID_00000178185478833685700180000015182153255147534738_" gradientUnits="userSpaceOnUse" x1="1753.2343" y1="2671.574" x2="517.3828" y2="4165.3926">
						<stop  offset="0.0036" style="stop-color:#F36F56"/>
						<stop  offset="1" style="stop-color:#FFC444"/>
					</linearGradient>
					<polygon style="fill:url(#SVGID_00000178185478833685700180000015182153255147534738_);" points="3123.493,1490.117 
						2647.793,1072.732 3258.243,867.767 3300.871,867.767 3161.953,1486.361 					"/>
				</g>
			</g>
			<g>
				
					<linearGradient id="SVGID_00000158719528262878393980000001674916182356481449_" gradientUnits="userSpaceOnUse" x1="986.2728" y1="2711.0217" x2="3194.1184" y2="503.1762">
					<stop  offset="0" style="stop-color:#FFC444"/>
					<stop  offset="0.9964" style="stop-color:#F36F56"/>
				</linearGradient>
				<path style="fill:url(#SVGID_00000158719528262878393980000001674916182356481449_);" d="M698.79,2723.827
					c-49.202,1.688-98.806-11.982-139.173-42.039c-89.416-66.56-99.036-187.529-21.357-269.343l1135.28-1204.115
					c37.144-39.104,90.833-60.63,147.05-59.096c55.964,1.528,108.946,25.76,145.335,66.341l380.11,423.868l431.917-474.902
					c64.608-71.044,176.515-75.362,249.846-10.371c72.885,64.592,80.671,173.839,17.494,244.713l-559.966,628.17
					c-34.88,39.129-85.659,61.978-139.292,62.549c-53.87,0.573-105.313-21.381-140.9-60.273l-384.546-420.246L857.545,2653.213
					C816.195,2697.682,757.782,2721.802,698.79,2723.827z"/>
				<g>
					
						<linearGradient id="SVGID_00000023960706785401756630000011976673726486026374_" gradientUnits="userSpaceOnUse" x1="1240.4937" y1="2965.2397" x2="3448.3357" y2="757.3977">
						<stop  offset="0" style="stop-color:#FFC444"/>
						<stop  offset="0.9964" style="stop-color:#F36F56"/>
					</linearGradient>
					<polygon style="fill:url(#SVGID_00000023960706785401756630000011976673726486026374_);" points="3161.953,1486.361 
						2690.421,1072.732 3300.871,867.767 					"/>
				</g>
			</g>
		</g>
		<g>
			<g>
				<path style="fill:#26264F;" d="M1939.963,629.328c97.205,821.557,194.411,1634.536,291.617,2438.949
					c4.364,36.064-20.554,67.962-55.416,70.932c-390.666,37.059-781.333,74.935-1171.999,113.623
					c-69.689,3.383-107.956-35.56-112.442-74.546C791.667,2309.92,691.614,1432.462,591.56,545.917
					c-4.487-39.817,29.244-74.041,98.932-70.639c392.591,27.991,785.181,55.613,1177.772,82.864
					C1903.359,560.463,1935.603,592.476,1939.963,629.328z"/>
				
					<linearGradient id="SVGID_00000162351984596295721890000014464171408129507005_" gradientUnits="userSpaceOnUse" x1="835.2214" y1="1863.8044" x2="3314.2085" y2="1769.0341" gradientTransform="matrix(1 0 0.1172 1.0028 -223.9047 -3.761)">
					<stop  offset="0" style="stop-color:#444B8C"/>
					<stop  offset="0.9964" style="stop-color:#26264F"/>
				</linearGradient>
				<path style="fill:url(#SVGID_00000162351984596295721890000014464171408129507005_);" d="M1994.221,627.646
					c97.818,825.138,195.635,1641.596,293.452,2449.372c4.389,36.185-20.68,68.265-55.763,71.259
					c-405.657,34.354-811.314,69.384-1216.971,105.108c-37.019,3.291-71.048-26.031-75.558-65.204
					C838.696,2315.835,738.012,1434.302,637.327,543.552c-4.515-39.985,22.32-70.682,59.587-68.154
					c408.385,27.242,816.771,54.151,1225.155,80.745C1957.389,558.493,1989.832,590.631,1994.221,627.646z"/>
				
					<linearGradient id="SVGID_00000051352619026037378870000012973587463406177956_" gradientUnits="userSpaceOnUse" x1="1740.7156" y1="1300.4397" x2="-644.4521" y2="6247.7207">
					<stop  offset="0.0036" style="stop-color:#E38DDD"/>
					<stop  offset="1" style="stop-color:#9571F6"/>
				</linearGradient>
				<path style="fill:url(#SVGID_00000051352619026037378870000012973587463406177956_);" d="M1970.652,762.638
					c90.601,764.485,181.204,1521.511,271.806,2271.094c4.1,33.878-19.331,63.795-52.109,66.463
					c-381.498,31.201-762.999,62.993-1144.498,95.381c-34.47,2.956-66.157-24.493-70.369-60.888
					c-93.095-805.734-186.189-1619.339-279.284-2440.804c-4.207-37.165,20.765-65.93,55.451-63.873
					c383.875,22.35,767.752,44.474,1151.626,66.352C1936.256,698.247,1966.563,728.107,1970.652,762.638z"/>
				
					<linearGradient id="SVGID_00000037670986639850555170000007883461471283081135_" gradientUnits="userSpaceOnUse" x1="1933.1835" y1="923.1677" x2="-451.9821" y2="5870.4448">
					<stop  offset="0.0036" style="stop-color:#E38DDD"/>
					<stop  offset="1" style="stop-color:#9571F6"/>
				</linearGradient>
				<path style="opacity:0.3;fill:url(#SVGID_00000037670986639850555170000007883461471283081135_);" d="M1903.276,696.364
					c-379.328-21.62-758.657-43.486-1137.985-65.563c11.726,67.419,32.171,140.794,66.646,215.59
					c125.824,272.977,310.668,288.01,382.985,525.89c74.504,245.073-93.52,321.771-11.432,543.039
					c89.075,240.103,307.534,205.353,422.998,468.728c99.522,227.007-28.598,330.778,74.311,468.728
					c112.797,151.206,321.463,99.941,538.06,151.153c-89.402-739.854-178.806-1486.926-268.208-2241.291
					C1966.563,728.107,1936.256,698.248,1903.276,696.364z"/>
			</g>
			<path style="fill:#DE8BDF;" d="M1349.218,595.595c1.542,13.291-7.388,23.469-19.956,22.743
				c-12.574-0.764-24.023-12.191-25.567-25.545c-1.545-13.316,7.402-23.551,19.977-22.729
				C1336.245,570.842,1347.676,582.279,1349.218,595.595z"/>
			
				<linearGradient id="SVGID_00000010292972278506304260000004253520855174171570_" gradientUnits="userSpaceOnUse" x1="1398.4636" y1="1230.7924" x2="1574.058" y2="1230.7924">
				<stop  offset="0" style="stop-color:#FF9085"/>
				<stop  offset="1" style="stop-color:#FB6FBB"/>
			</linearGradient>
			
				<ellipse style="fill:url(#SVGID_00000010292972278506304260000004253520855174171570_);" cx="1486.261" cy="1230.793" rx="87.797" ry="103.581"/>
			
				<linearGradient id="SVGID_00000160185649480043963120000014447146920280938131_" gradientUnits="userSpaceOnUse" x1="1747.953" y1="1230.7924" x2="1923.5469" y2="1230.7924">
				<stop  offset="0" style="stop-color:#FF9085"/>
				<stop  offset="1" style="stop-color:#FB6FBB"/>
			</linearGradient>
			
				<ellipse style="fill:url(#SVGID_00000160185649480043963120000014447146920280938131_);" cx="1835.75" cy="1230.793" rx="87.797" ry="103.581"/>
			<ellipse style="fill:#D8DEE8;" cx="1660.037" cy="1230.793" rx="89.049" ry="103.581"/>
			
				<linearGradient id="SVGID_00000139984537526880942090000017823215715257749634_" gradientUnits="userSpaceOnUse" x1="2097.4414" y1="1230.7924" x2="2273.0359" y2="1230.7924">
				<stop  offset="0" style="stop-color:#FF9085"/>
				<stop  offset="1" style="stop-color:#FB6FBB"/>
			</linearGradient>
			
				<ellipse style="fill:url(#SVGID_00000139984537526880942090000017823215715257749634_);" cx="2185.239" cy="1230.793" rx="87.797" ry="103.581"/>
			<ellipse style="fill:#D8DEE8;" cx="2009.526" cy="1230.793" rx="89.049" ry="103.581"/>
			<ellipse style="fill:#D8DEE8;" cx="2359.014" cy="1230.793" rx="89.048" ry="103.581"/>
			<ellipse style="fill:#D8DEE8;" cx="1310.548" cy="1230.793" rx="89.048" ry="103.581"/>
			
				<linearGradient id="SVGID_00000135686528139282775980000000248559105290681503_" gradientUnits="userSpaceOnUse" x1="678.5852" y1="932.2875" x2="2629.5891" y2="932.2875">
				<stop  offset="0" style="stop-color:#FF9085"/>
				<stop  offset="1" style="stop-color:#FB6FBB"/>
			</linearGradient>
			<polygon style="fill:url(#SVGID_00000135686528139282775980000000248559105290681503_);" points="678.585,619.755 
				1223.405,1244.82 2629.589,1244.82 1948.2,698.923 			"/>
			<g>
				<polygon style="fill:#F4F7FA;" points="678.585,619.756 1223.405,1244.82 1399.596,1244.82 825.139,628.894 				"/>
				<polygon style="fill:#F4F7FA;" points="982.495,638.705 1573.224,1244.82 1747.268,1244.82 1141.015,648.592 				"/>
				<polygon style="fill:#F4F7FA;" points="1300.719,658.55 1921.728,1244.82 2096.611,1244.82 1461.626,668.584 				"/>
				<polygon style="fill:#F4F7FA;" points="1787.139,688.881 1623.759,678.693 2271.92,1244.82 2447.657,1244.82 				"/>
			</g>
			
				<linearGradient id="SVGID_00000137129243487312803330000006849577913596713380_" gradientUnits="userSpaceOnUse" x1="2447.8286" y1="1289.5961" x2="2621.6265" y2="1289.5961">
				<stop  offset="0" style="stop-color:#FF9085"/>
				<stop  offset="1" style="stop-color:#FB6FBB"/>
			</linearGradient>
			<path style="fill:url(#SVGID_00000137129243487312803330000006849577913596713380_);" d="M2447.829,1244.82
				c5.817,50.553,42.453,89.553,86.899,89.553c44.446,0,81.082-39,86.899-89.553H2447.829z"/>
			<path style="opacity:0.63;fill:#F4F7FA;" d="M1779.485,1635.288c-76.048-175.265-268.979-260.383-430.923-190.117
				c-161.943,70.269-231.575,269.315-155.525,444.582c76.049,175.266,268.98,260.383,430.923,190.117
				C1785.903,2009.601,1855.534,1810.556,1779.485,1635.288z M1540.687,1885.051l6.487,49.364l-47.432,6.23l-6.046-45.981
				c-32.617,2.819-65.223-1.758-85.017-9.992l7.078-58.535c21.793,8.451,51.686,14.871,83.147,10.735
				c27.593-3.623,45.065-16.758,42.52-36.117c-2.417-18.398-19.431-27.973-56.838-35.369c-54.081-10.617-92.593-30.177-98.767-77.13
				c-5.593-42.587,20.024-79.932,70.476-96.901l-6.04-45.981l47.438-6.229l5.593,42.592c32.623-2.813,55.292,1.1,72.284,6.743
				l-6.849,56.542c-13.286-3.667-37.01-11.88-71.866-7.296c-31.461,4.131-39.84,19.024-38.06,32.578
				c2.099,15.971,20.375,23.909,63.554,33.99c60.271,12.761,86.999,36.33,92.726,79.882
				C1620.736,1827.258,1595.081,1868.047,1540.687,1885.051z"/>
			<g style="opacity:0.63;">
				<path style="fill:#F4F7FA;" d="M1953.242,2586.961l-741.252,22.459c-26.648,0.808-49.704-18.409-53.711-44.767l-30.043-197.617
					c-4.776-31.418,19.124-59.887,50.894-60.623l742.054-17.188c26.51-0.614,49.35,18.561,53.336,44.777l29.241,192.346
					C2008.515,2557.617,1984.856,2586.004,1953.242,2586.961z"/>
				<path style="fill:#F4F7FA;" d="M1978.147,2749.417l-740.814,25.338c-26.724,0.914-49.899-18.325-53.918-44.76l-0.282-1.86
					c-4.749-31.24,18.864-59.61,50.446-60.611l741.097-23.478c26.675-0.845,49.773,18.379,53.784,44.765l0,0
					C2033.201,2719.998,2009.673,2748.339,1978.147,2749.417z"/>
			</g>
		</g>
		<g>
			<g>
				
					<linearGradient id="SVGID_00000124847054919041557550000010779634968007197111_" gradientUnits="userSpaceOnUse" x1="2064.5249" y1="3211.2097" x2="2924.8181" y2="3211.2097">
					<stop  offset="0" style="stop-color:#F57E53"/>
					<stop  offset="0.0045" style="stop-color:#F58152"/>
					<stop  offset="0.042" style="stop-color:#F99A4D"/>
					<stop  offset="0.084" style="stop-color:#FCAD49"/>
					<stop  offset="0.1333" style="stop-color:#FEBA46"/>
					<stop  offset="0.1962" style="stop-color:#FFC244"/>
					<stop  offset="0.3183" style="stop-color:#FFC444"/>
					<stop  offset="0.455" style="stop-color:#FDB946"/>
					<stop  offset="0.6941" style="stop-color:#F99C4C"/>
					<stop  offset="0.9964" style="stop-color:#F36F56"/>
				</linearGradient>
				<path style="fill:url(#SVGID_00000124847054919041557550000010779634968007197111_);" d="M2128.452,3145.482v82.933
					c0,26.799,167.399,48.522,373.897,48.522c206.499,0,373.898-21.723,373.898-48.522v-82.933H2128.452z"/>
				
					<linearGradient id="SVGID_00000095316019041760774100000000792517974528367262_" gradientUnits="userSpaceOnUse" x1="2498.6252" y1="3114.3008" x2="2543.979" y2="3493.9785">
					<stop  offset="0" style="stop-color:#FFDB44"/>
					<stop  offset="1" style="stop-color:#FEEF06"/>
				</linearGradient>
				
					<ellipse style="fill:url(#SVGID_00000095316019041760774100000000792517974528367262_);" cx="2502.35" cy="3145.482" rx="373.897" ry="48.522"/>
				
					<linearGradient id="SVGID_00000016764818898899568180000018017669325796333991_" gradientUnits="userSpaceOnUse" x1="2496.6528" y1="3097.3687" x2="2510.5818" y2="3213.9741">
					<stop  offset="0" style="stop-color:#FFDB44"/>
					<stop  offset="1" style="stop-color:#FEEF06"/>
				</linearGradient>
				<path style="fill:url(#SVGID_00000016764818898899568180000018017669325796333991_);" d="M2502.349,3197.35
					c-182.881,0-374.115-17.467-374.115-51.159c0-1.85,0.66-5.102,2.51-5.102s1.054,2.544,1.054,4.394
					c0,21.367,152.18,45.173,370.55,45.173c218.37,0,370.55-23.805,370.55-45.173c0-1.85,0.316-3.584,2.166-3.584
					c1.85,0,1.404,2.469,1.404,4.32C2876.468,3179.91,2685.229,3197.35,2502.349,3197.35z"/>
				<g>
					<path style="fill:#FCB048;" d="M2467.018,3148.187c3.669-2.54,7.572-5.043,11.751-7.517c4.139-2.469,9.532-4.701,16.062-6.694
						c6.569-1.995,14.785-3.617,24.648-4.875c9.863-1.258,22.195-1.921,36.919-1.993c14.45-0.071,28.003,0.389,40.696,1.378
						c12.654,0.985,23.822,2.465,33.465,4.431c9.604,1.966,17.448,4.398,23.494,7.288c6.006,2.899,9.586,6.215,10.74,9.955
						l42.1,0.425c3.055,0.02,5.758,0.267,8.071,0.748c2.352,0.48,3.491,1.085,3.494,1.821l0.017,3.466l-54.124-0.521
						c-1.898,4.245-6.735,8.129-14.511,11.651c-7.736,3.525-17.629,6.575-29.679,9.156l-19.711-2.742
						c-1.763-0.269-3.214-0.612-4.352-1.03c-1.137-0.413-1.688-0.864-1.69-1.355c-0.003-0.667,1.521-1.426,4.571-2.279
						c3.051-0.857,6.491-1.917,10.323-3.18c3.832-1.258,7.583-2.746,11.295-4.466c3.673-1.715,6.131-3.766,7.411-6.153
						l-127.75-1.267c-3.355,2.47-7.142,4.895-11.281,7.28c-4.179,2.384-9.69,4.531-16.573,6.438
						c-6.882,1.906-15.452,3.452-25.706,4.643c-10.294,1.188-23.174,1.82-38.76,1.896c-11.709,0.058-23.107-0.387-34.273-1.328
						c-11.166-0.945-21.08-2.358-29.744-4.239c-8.664-1.885-15.763-4.215-21.338-6.987c-5.535-2.776-8.645-5.963-9.288-9.567
						l-34.66-0.356c-3.054-0.019-5.758-0.258-8.188-0.72c-2.39-0.462-3.608-1.077-3.612-1.846l-0.017-3.467l47.386,0.451
						c2.097-3.651,6.389-6.836,12.955-9.544c6.566-2.712,14.582-5.124,24.048-7.235l15.872,2.179c4.82,0.677,7.213,1.469,7.218,2.38
						c0.002,0.492-0.975,1.099-2.968,1.827c-2.033,0.728-4.379,1.598-7.115,2.608c-2.697,1.014-5.354,2.198-7.893,3.561
						c-2.578,1.359-4.489,2.899-5.773,4.624L2467.018,3148.187z M2350.106,3152.911c0.951,2.274,3.075,4.23,6.295,5.877
						c3.219,1.651,7.22,3.003,12.043,4.065c4.822,1.062,10.23,1.839,16.223,2.336c6.034,0.496,12.34,0.73,18.919,0.698
						c7.675-0.038,14.37-0.37,20.085-0.992c5.675-0.627,10.684-1.471,15.026-2.545c4.302-1.073,8.095-2.314,11.299-3.731
						c3.204-1.418,6.056-2.953,8.632-4.612L2350.106,3152.911z M2628.213,3149.811c-0.951-2.303-3.271-4.322-6.883-6.057
						c-3.611-1.731-8.24-3.191-13.845-4.369c-5.605-1.182-12.149-2.06-19.632-2.635c-7.444-0.575-15.669-0.843-24.676-0.798
						c-7.988,0.039-14.918,0.397-20.671,1.071c-5.754,0.679-10.762,1.583-15.025,2.729c-4.224,1.14-7.859,2.471-10.789,3.99
						c-2.968,1.519-5.741,3.145-8.277,4.875L2628.213,3149.811z"/>
				</g>
				
					<linearGradient id="SVGID_00000146473286622786814150000014754131731320967868_" gradientUnits="userSpaceOnUse" x1="-840.4973" y1="926.09" x2="-826.6179" y2="1042.281" gradientTransform="matrix(-1 0 0 -1 1669.249 4127.8389)">
					<stop  offset="0.0036" style="stop-color:#F36F56"/>
					<stop  offset="0.3059" style="stop-color:#F99C4C"/>
					<stop  offset="0.545" style="stop-color:#FDB946"/>
					<stop  offset="0.6817" style="stop-color:#FFC444"/>
					<stop  offset="0.8038" style="stop-color:#FFC244"/>
					<stop  offset="0.8667" style="stop-color:#FEBA46"/>
					<stop  offset="0.916" style="stop-color:#FCAD49"/>
					<stop  offset="0.958" style="stop-color:#F99A4D"/>
					<stop  offset="0.9955" style="stop-color:#F58152"/>
					<stop  offset="1" style="stop-color:#F57E53"/>
				</linearGradient>
				<path style="fill:url(#SVGID_00000146473286622786814150000014754131731320967868_);" d="M2502.4,3102.213
					c-166.715,0-340.301,14.67-368.068,43.069c1.087,1.002,2.097,2.071,3.036,3.196c23.403-19.718,166.737-39.57,365.032-39.57
					c203.385,0,349.018,20.887,366.659,41.089c0.866-1.108,1.793-2.168,2.796-3.167
					C2848.921,3117.425,2672.076,3102.213,2502.4,3102.213z"/>
			</g>
			<g>
				
					<linearGradient id="SVGID_00000096036018295979994170000003181946281830644120_" gradientUnits="userSpaceOnUse" x1="1960.5829" y1="3124.0996" x2="2820.8767" y2="3124.0996">
					<stop  offset="0" style="stop-color:#F57E53"/>
					<stop  offset="0.0045" style="stop-color:#F58152"/>
					<stop  offset="0.042" style="stop-color:#F99A4D"/>
					<stop  offset="0.084" style="stop-color:#FCAD49"/>
					<stop  offset="0.1333" style="stop-color:#FEBA46"/>
					<stop  offset="0.1962" style="stop-color:#FFC244"/>
					<stop  offset="0.3183" style="stop-color:#FFC444"/>
					<stop  offset="0.455" style="stop-color:#FDB946"/>
					<stop  offset="0.6941" style="stop-color:#F99C4C"/>
					<stop  offset="0.9964" style="stop-color:#F36F56"/>
				</linearGradient>
				<path style="fill:url(#SVGID_00000096036018295979994170000003181946281830644120_);" d="M2024.51,3058.373v82.932
					c0,26.799,167.4,48.521,373.898,48.521c206.498,0,373.897-21.723,373.897-48.521v-82.932H2024.51z"/>
				
					<linearGradient id="SVGID_00000075862923769006149400000012434041941124715193_" gradientUnits="userSpaceOnUse" x1="2394.6833" y1="3027.1912" x2="2440.0374" y2="3406.8696">
					<stop  offset="0" style="stop-color:#FFDB44"/>
					<stop  offset="1" style="stop-color:#FEEF06"/>
				</linearGradient>
				
					<ellipse style="fill:url(#SVGID_00000075862923769006149400000012434041941124715193_);" cx="2398.408" cy="3058.373" rx="373.898" ry="48.522"/>
				
					<linearGradient id="SVGID_00000065051888315726487280000000517406913074034066_" gradientUnits="userSpaceOnUse" x1="2392.7112" y1="3010.2593" x2="2406.6401" y2="3126.864">
					<stop  offset="0" style="stop-color:#FFDB44"/>
					<stop  offset="1" style="stop-color:#FEEF06"/>
				</linearGradient>
				<path style="fill:url(#SVGID_00000065051888315726487280000000517406913074034066_);" d="M2398.407,3110.24
					c-182.88,0-374.115-17.468-374.115-51.159c0-1.851,0.661-5.102,2.51-5.102c1.851,0,1.055,2.543,1.055,4.393
					c0,21.367,152.18,45.173,370.55,45.173s370.55-23.806,370.55-45.173c0-1.85,0.316-3.584,2.165-3.584
					c1.851,0,1.405,2.469,1.405,4.32C2772.527,3092.799,2581.287,3110.24,2398.407,3110.24z"/>
				<g>
					<path style="fill:#FCB048;" d="M2363.076,3061.077c3.669-2.54,7.573-5.043,11.75-7.517c4.139-2.47,9.533-4.702,16.063-6.696
						c6.569-1.994,14.785-3.616,24.647-4.874c9.862-1.258,22.195-1.921,36.92-1.993c14.45-0.071,28.001,0.388,40.695,1.378
						c12.654,0.984,23.822,2.464,33.466,4.43c9.604,1.967,17.448,4.398,23.493,7.288c6.005,2.898,9.586,6.216,10.74,9.954
						l42.1,0.426c3.054,0.019,5.758,0.267,8.071,0.747c2.352,0.48,3.49,1.086,3.494,1.821l0.017,3.466l-54.123-0.521
						c-1.898,4.245-6.734,8.129-14.51,11.65c-7.737,3.526-17.63,6.576-29.679,9.156l-19.711-2.742
						c-1.763-0.269-3.214-0.612-4.351-1.03c-1.138-0.413-1.689-0.864-1.691-1.355c-0.003-0.667,1.52-1.427,4.571-2.279
						c3.051-0.857,6.491-1.917,10.323-3.179c3.831-1.259,7.583-2.748,11.296-4.467c3.672-1.716,6.129-3.766,7.41-6.153
						l-127.749-1.267c-3.355,2.471-7.142,4.896-11.282,7.28c-4.178,2.384-9.69,4.531-16.572,6.437
						c-6.884,1.906-15.452,3.452-25.707,4.645c-10.293,1.187-23.174,1.819-38.76,1.895c-11.708,0.057-23.107-0.387-34.272-1.328
						c-11.166-0.946-21.081-2.358-29.744-4.24c-8.664-1.885-15.763-4.214-21.338-6.986c-5.535-2.777-8.644-5.963-9.288-9.568
						l-34.66-0.355c-3.055-0.019-5.758-0.258-8.188-0.721c-2.392-0.462-3.609-1.076-3.612-1.846l-0.017-3.467l47.387,0.453
						c2.097-3.653,6.389-6.836,12.955-9.545c6.566-2.713,14.582-5.124,24.049-7.235l15.871,2.178c4.82,0.677,7.213,1.469,7.217,2.38
						c0.003,0.492-0.973,1.099-2.968,1.826c-2.032,0.729-4.378,1.599-7.114,2.609c-2.698,1.014-5.355,2.198-7.894,3.561
						c-2.577,1.359-4.489,2.898-5.773,4.623L2363.076,3061.077z M2246.164,3065.801c0.951,2.274,3.075,4.23,6.295,5.877
						c3.219,1.651,7.22,3.004,12.042,4.065c4.822,1.063,10.23,1.84,16.225,2.336c6.032,0.496,12.339,0.73,18.918,0.698
						c7.676-0.038,14.37-0.37,20.085-0.992c5.676-0.626,10.684-1.472,15.025-2.545c4.302-1.072,8.095-2.313,11.299-3.731
						c3.204-1.417,6.056-2.953,8.632-4.611L2246.164,3065.801z M2524.271,3062.701c-0.951-2.303-3.272-4.323-6.883-6.058
						c-3.612-1.731-8.239-3.191-13.845-4.369c-5.606-1.182-12.151-2.061-19.633-2.635c-7.443-0.575-15.668-0.842-24.675-0.798
						c-7.989,0.039-14.918,0.397-20.672,1.072c-5.753,0.677-10.761,1.582-15.024,2.727c-4.223,1.141-7.859,2.471-10.789,3.99
						c-2.969,1.519-5.742,3.144-8.279,4.875L2524.271,3062.701z"/>
				</g>
				
					<linearGradient id="SVGID_00000042715151858856714970000015129346022572474775_" gradientUnits="userSpaceOnUse" x1="-736.5563" y1="1013.1992" x2="-722.6768" y2="1129.3916" gradientTransform="matrix(-1 0 0 -1 1669.249 4127.8389)">
					<stop  offset="0.0036" style="stop-color:#F36F56"/>
					<stop  offset="0.3059" style="stop-color:#F99C4C"/>
					<stop  offset="0.545" style="stop-color:#FDB946"/>
					<stop  offset="0.6817" style="stop-color:#FFC444"/>
					<stop  offset="0.8038" style="stop-color:#FFC244"/>
					<stop  offset="0.8667" style="stop-color:#FEBA46"/>
					<stop  offset="0.916" style="stop-color:#FCAD49"/>
					<stop  offset="0.958" style="stop-color:#F99A4D"/>
					<stop  offset="0.9955" style="stop-color:#F58152"/>
					<stop  offset="1" style="stop-color:#F57E53"/>
				</linearGradient>
				<path style="fill:url(#SVGID_00000042715151858856714970000015129346022572474775_);" d="M2398.459,3015.103
					c-166.715,0-340.301,14.67-368.067,43.069c1.087,1.002,2.096,2.071,3.035,3.196c23.404-19.718,166.738-39.569,365.033-39.569
					c203.385,0,349.017,20.887,366.658,41.09c0.866-1.108,1.793-2.169,2.796-3.168
					C2744.98,3030.316,2568.135,3015.103,2398.459,3015.103z"/>
			</g>
			<g>
				
					<linearGradient id="SVGID_00000051360435361060766390000004028515180223664811_" gradientUnits="userSpaceOnUse" x1="2050.2708" y1="3037.2446" x2="2910.5647" y2="3037.2446">
					<stop  offset="0" style="stop-color:#F57E53"/>
					<stop  offset="0.0045" style="stop-color:#F58152"/>
					<stop  offset="0.042" style="stop-color:#F99A4D"/>
					<stop  offset="0.084" style="stop-color:#FCAD49"/>
					<stop  offset="0.1333" style="stop-color:#FEBA46"/>
					<stop  offset="0.1962" style="stop-color:#FFC244"/>
					<stop  offset="0.3183" style="stop-color:#FFC444"/>
					<stop  offset="0.455" style="stop-color:#FDB946"/>
					<stop  offset="0.6941" style="stop-color:#F99C4C"/>
					<stop  offset="0.9964" style="stop-color:#F36F56"/>
				</linearGradient>
				<path style="fill:url(#SVGID_00000051360435361060766390000004028515180223664811_);" d="M2114.198,2971.518v82.932
					c0,26.799,167.399,48.522,373.897,48.522c206.498,0,373.898-21.723,373.898-48.522v-82.932H2114.198z"/>
				
					<linearGradient id="SVGID_00000109709894996635282120000000923020133722833078_" gradientUnits="userSpaceOnUse" x1="2484.3706" y1="2940.3362" x2="2529.7246" y2="3320.0144">
					<stop  offset="0" style="stop-color:#FFDB44"/>
					<stop  offset="1" style="stop-color:#FEEF06"/>
				</linearGradient>
				
					<ellipse style="fill:url(#SVGID_00000109709894996635282120000000923020133722833078_);" cx="2488.095" cy="2971.518" rx="373.898" ry="48.522"/>
				
					<linearGradient id="SVGID_00000080902106362620838520000002260857823123905178_" gradientUnits="userSpaceOnUse" x1="2482.3987" y1="2923.4038" x2="2496.3276" y2="3040.0088">
					<stop  offset="0" style="stop-color:#FFDB44"/>
					<stop  offset="1" style="stop-color:#FEEF06"/>
				</linearGradient>
				<path style="fill:url(#SVGID_00000080902106362620838520000002260857823123905178_);" d="M2488.094,3023.385
					c-182.88,0-374.115-17.468-374.115-51.159c0-1.85,0.66-5.102,2.51-5.102s1.054,2.543,1.054,4.394
					c0,21.367,152.18,45.172,370.55,45.172s370.55-23.805,370.55-45.172c0-1.851,0.316-3.584,2.165-3.584
					c1.851,0,1.405,2.469,1.405,4.32C2862.214,3005.944,2670.975,3023.385,2488.094,3023.385z"/>
				<g>
					<path style="fill:#FCB048;" d="M2452.763,2974.222c3.669-2.54,7.573-5.042,11.75-7.516c4.139-2.47,9.533-4.702,16.063-6.696
						c6.569-1.995,14.785-3.616,24.648-4.874c9.862-1.258,22.195-1.921,36.919-1.994c14.45-0.071,28.002,0.388,40.695,1.377
						c12.654,0.985,23.822,2.465,33.466,4.431c9.604,1.966,17.448,4.398,23.493,7.288c6.005,2.898,9.586,6.215,10.74,9.954
						l42.1,0.426c3.055,0.019,5.758,0.267,8.071,0.747c2.352,0.48,3.491,1.086,3.494,1.821l0.017,3.466l-54.123-0.521
						c-1.898,4.246-6.735,8.129-14.511,11.651c-7.737,3.527-17.63,6.576-29.678,9.156l-19.712-2.742
						c-1.763-0.269-3.214-0.612-4.351-1.03c-1.138-0.413-1.688-0.864-1.691-1.355c-0.003-0.667,1.521-1.427,4.571-2.28
						c3.05-0.856,6.491-1.917,10.323-3.179c3.831-1.259,7.584-2.748,11.296-4.468c3.673-1.714,6.13-3.766,7.41-6.153l-127.75-1.267
						c-3.355,2.47-7.142,4.895-11.282,7.279c-4.178,2.384-9.69,4.532-16.572,6.438c-6.884,1.906-15.452,3.452-25.706,4.645
						c-10.294,1.187-23.174,1.819-38.761,1.895c-11.709,0.057-23.107-0.387-34.272-1.328c-11.166-0.946-21.081-2.359-29.744-4.24
						c-8.664-1.885-15.763-4.214-21.338-6.986c-5.536-2.777-8.644-5.964-9.288-9.568l-34.66-0.356
						c-3.055-0.019-5.758-0.258-8.188-0.721c-2.392-0.462-3.608-1.077-3.612-1.845l-0.017-3.467l47.386,0.452
						c2.097-3.652,6.389-6.836,12.955-9.544c6.565-2.712,14.582-5.124,24.048-7.235l15.871,2.179c4.82,0.677,7.213,1.469,7.217,2.38
						c0.003,0.491-0.973,1.099-2.968,1.827c-2.032,0.728-4.378,1.599-7.114,2.608c-2.698,1.014-5.354,2.198-7.893,3.561
						c-2.578,1.359-4.489,2.898-5.773,4.623L2452.763,2974.222z M2335.852,2978.946c0.95,2.274,3.075,4.229,6.295,5.876
						c3.219,1.651,7.22,3.004,12.042,4.066c4.823,1.062,10.23,1.839,16.225,2.335c6.033,0.496,12.339,0.73,18.918,0.698
						c7.676-0.038,14.37-0.369,20.085-0.992c5.675-0.625,10.684-1.471,15.025-2.544c4.303-1.072,8.095-2.314,11.299-3.732
						c3.204-1.417,6.056-2.954,8.632-4.611L2335.852,2978.946z M2613.958,2975.846c-0.951-2.303-3.271-4.323-6.882-6.058
						c-3.612-1.73-8.24-3.191-13.845-4.369c-5.606-1.182-12.151-2.061-19.633-2.635c-7.443-0.575-15.668-0.843-24.675-0.798
						c-7.989,0.039-14.918,0.398-20.672,1.072c-5.753,0.677-10.761,1.582-15.024,2.728c-4.224,1.14-7.859,2.47-10.789,3.99
						c-2.969,1.519-5.741,3.144-8.279,4.875L2613.958,2975.846z"/>
				</g>
				
					<linearGradient id="SVGID_00000110455568504466992480000000797438168431692173_" gradientUnits="userSpaceOnUse" x1="-826.2437" y1="1100.0543" x2="-812.3641" y2="1216.2463" gradientTransform="matrix(-1 0 0 -1 1669.249 4127.8389)">
					<stop  offset="0.0036" style="stop-color:#F36F56"/>
					<stop  offset="0.3059" style="stop-color:#F99C4C"/>
					<stop  offset="0.545" style="stop-color:#FDB946"/>
					<stop  offset="0.6817" style="stop-color:#FFC444"/>
					<stop  offset="0.8038" style="stop-color:#FFC244"/>
					<stop  offset="0.8667" style="stop-color:#FEBA46"/>
					<stop  offset="0.916" style="stop-color:#FCAD49"/>
					<stop  offset="0.958" style="stop-color:#F99A4D"/>
					<stop  offset="0.9955" style="stop-color:#F58152"/>
					<stop  offset="1" style="stop-color:#F57E53"/>
				</linearGradient>
				<path style="fill:url(#SVGID_00000110455568504466992480000000797438168431692173_);" d="M2488.146,2928.248
					c-166.715,0-340.302,14.669-368.067,43.068c1.087,1.002,2.096,2.071,3.034,3.196c23.403-19.718,166.739-39.569,365.033-39.569
					c203.385,0,349.017,20.886,366.658,41.089c0.866-1.109,1.794-2.169,2.796-3.168
					C2834.668,2943.461,2657.822,2928.248,2488.146,2928.248z"/>
			</g>
			<g>
				
					<linearGradient id="SVGID_00000097480176225643401920000010136297620892671361_" gradientUnits="userSpaceOnUse" x1="2104.6956" y1="2950.1343" x2="2964.9893" y2="2950.1343">
					<stop  offset="0" style="stop-color:#F57E53"/>
					<stop  offset="0.0045" style="stop-color:#F58152"/>
					<stop  offset="0.042" style="stop-color:#F99A4D"/>
					<stop  offset="0.084" style="stop-color:#FCAD49"/>
					<stop  offset="0.1333" style="stop-color:#FEBA46"/>
					<stop  offset="0.1962" style="stop-color:#FFC244"/>
					<stop  offset="0.3183" style="stop-color:#FFC444"/>
					<stop  offset="0.455" style="stop-color:#FDB946"/>
					<stop  offset="0.6941" style="stop-color:#F99C4C"/>
					<stop  offset="0.9964" style="stop-color:#F36F56"/>
				</linearGradient>
				<path style="fill:url(#SVGID_00000097480176225643401920000010136297620892671361_);" d="M2168.623,2884.408v82.932
					c0,26.799,167.4,48.521,373.897,48.521c206.498,0,373.898-21.723,373.898-48.521v-82.932H2168.623z"/>
				
					<linearGradient id="SVGID_00000062894764798989510390000017180830218158776987_" gradientUnits="userSpaceOnUse" x1="2538.7961" y1="2853.2256" x2="2584.1499" y2="3232.9041">
					<stop  offset="0" style="stop-color:#FFDB44"/>
					<stop  offset="1" style="stop-color:#FEEF06"/>
				</linearGradient>
				<path style="fill:url(#SVGID_00000062894764798989510390000017180830218158776987_);" d="M2916.418,2884.407
					c0,26.798-167.4,48.522-373.898,48.522c-206.498,0-373.897-21.724-373.897-48.522s167.4-48.522,373.897-48.522
					C2749.019,2835.885,2916.418,2857.609,2916.418,2884.407z"/>
				
					<linearGradient id="SVGID_00000124850203766916704810000005771462429613703346_" gradientUnits="userSpaceOnUse" x1="2536.8237" y1="2836.2937" x2="2550.7524" y2="2952.8984">
					<stop  offset="0" style="stop-color:#FFDB44"/>
					<stop  offset="1" style="stop-color:#FEEF06"/>
				</linearGradient>
				<path style="fill:url(#SVGID_00000124850203766916704810000005771462429613703346_);" d="M2542.52,2936.275
					c-182.881,0-374.115-17.468-374.115-51.159c0-1.851,0.66-5.102,2.51-5.102c1.851,0,1.055,2.543,1.055,4.394
					c0,21.367,152.18,45.172,370.55,45.172c218.369,0,370.55-23.805,370.55-45.172c0-1.85,0.315-3.584,2.165-3.584
					c1.85,0,1.405,2.469,1.405,4.319C2916.639,2918.834,2725.4,2936.275,2542.52,2936.275z"/>
				<g>
					<path style="fill:#FCB048;" d="M2507.189,2887.112c3.668-2.54,7.572-5.043,11.75-7.517c4.139-2.47,9.532-4.702,16.063-6.696
						c6.569-1.994,14.785-3.616,24.647-4.874c9.862-1.258,22.195-1.921,36.919-1.994c14.45-0.071,28.002,0.388,40.695,1.378
						c12.654,0.984,23.822,2.465,33.465,4.431c9.604,1.966,17.448,4.398,23.493,7.288c6.006,2.898,9.586,6.215,10.74,9.953
						l42.1,0.427c3.055,0.019,5.759,0.267,8.071,0.746c2.352,0.48,3.491,1.086,3.494,1.821l0.017,3.467l-54.124-0.521
						c-1.898,4.245-6.735,8.129-14.511,11.651c-7.736,3.526-17.629,6.575-29.678,9.156l-19.712-2.741
						c-1.763-0.27-3.214-0.613-4.352-1.03c-1.138-0.414-1.688-0.864-1.691-1.356c-0.003-0.667,1.521-1.426,4.571-2.279
						c3.051-0.857,6.492-1.917,10.323-3.18c3.831-1.259,7.583-2.748,11.295-4.467c3.673-1.715,6.13-3.766,7.41-6.153l-127.75-1.266
						c-3.355,2.47-7.142,4.895-11.281,7.279c-4.179,2.384-9.69,4.531-16.573,6.437c-6.883,1.906-15.451,3.453-25.706,4.645
						c-10.294,1.188-23.175,1.819-38.76,1.896c-11.709,0.058-23.107-0.386-34.272-1.328c-11.167-0.945-21.081-2.359-29.745-4.24
						c-8.664-1.885-15.763-4.214-21.338-6.987c-5.535-2.777-8.644-5.963-9.289-9.568l-34.659-0.356
						c-3.054-0.019-5.758-0.258-8.188-0.72c-2.391-0.463-3.608-1.077-3.612-1.846l-0.017-3.466l47.386,0.451
						c2.097-3.652,6.389-6.836,12.955-9.544c6.566-2.712,14.582-5.124,24.048-7.235l15.872,2.179c4.82,0.677,7.213,1.469,7.217,2.38
						c0.002,0.492-0.974,1.099-2.968,1.827c-2.032,0.728-4.378,1.599-7.115,2.608c-2.697,1.014-5.354,2.198-7.893,3.561
						c-2.578,1.359-4.489,2.899-5.773,4.623L2507.189,2887.112z M2390.276,2891.836c0.951,2.273,3.075,4.229,6.295,5.876
						c3.219,1.651,7.22,3.003,12.042,4.066c4.822,1.062,10.23,1.839,16.224,2.335c6.033,0.496,12.34,0.73,18.918,0.698
						c7.676-0.038,14.37-0.37,20.085-0.992c5.676-0.626,10.684-1.472,15.026-2.544c4.302-1.073,8.095-2.314,11.299-3.732
						c3.204-1.417,6.056-2.953,8.633-4.611L2390.276,2891.836z M2668.383,2888.736c-0.951-2.304-3.271-4.323-6.882-6.058
						c-3.612-1.729-8.24-3.19-13.845-4.368c-5.606-1.182-12.15-2.061-19.633-2.635c-7.443-0.574-15.668-0.842-24.675-0.798
						c-7.989,0.04-14.919,0.399-20.672,1.072c-5.754,0.678-10.762,1.583-15.024,2.728c-4.224,1.14-7.86,2.47-10.789,3.99
						c-2.969,1.519-5.741,3.144-8.278,4.875L2668.383,2888.736z"/>
				</g>
				
					<linearGradient id="SVGID_00000021091267771585211320000017154460811059620246_" gradientUnits="userSpaceOnUse" x1="-880.6682" y1="1187.1648" x2="-866.7887" y2="1303.3567" gradientTransform="matrix(-1 0 0 -1 1669.249 4127.8389)">
					<stop  offset="0.0036" style="stop-color:#F36F56"/>
					<stop  offset="0.3059" style="stop-color:#F99C4C"/>
					<stop  offset="0.545" style="stop-color:#FDB946"/>
					<stop  offset="0.6817" style="stop-color:#FFC444"/>
					<stop  offset="0.8038" style="stop-color:#FFC244"/>
					<stop  offset="0.8667" style="stop-color:#FEBA46"/>
					<stop  offset="0.916" style="stop-color:#FCAD49"/>
					<stop  offset="0.958" style="stop-color:#F99A4D"/>
					<stop  offset="0.9955" style="stop-color:#F58152"/>
					<stop  offset="1" style="stop-color:#F57E53"/>
				</linearGradient>
				<path style="fill:url(#SVGID_00000021091267771585211320000017154460811059620246_);" d="M2542.571,2841.138
					c-166.715,0-340.301,14.67-368.067,43.068c1.087,1.002,2.096,2.072,3.035,3.196c23.404-19.717,166.738-39.569,365.032-39.569
					c203.385,0,349.018,20.886,366.659,41.089c0.866-1.108,1.793-2.169,2.796-3.168
					C2889.092,2856.35,2712.247,2841.138,2542.571,2841.138z"/>
			</g>
			<g>
				
					<linearGradient id="SVGID_00000069386569954480976520000008386743610745612698_" gradientUnits="userSpaceOnUse" x1="2064.5249" y1="2856.1521" x2="2924.8181" y2="2856.1521">
					<stop  offset="0" style="stop-color:#F57E53"/>
					<stop  offset="0.0045" style="stop-color:#F58152"/>
					<stop  offset="0.042" style="stop-color:#F99A4D"/>
					<stop  offset="0.084" style="stop-color:#FCAD49"/>
					<stop  offset="0.1333" style="stop-color:#FEBA46"/>
					<stop  offset="0.1962" style="stop-color:#FFC244"/>
					<stop  offset="0.3183" style="stop-color:#FFC444"/>
					<stop  offset="0.455" style="stop-color:#FDB946"/>
					<stop  offset="0.6941" style="stop-color:#F99C4C"/>
					<stop  offset="0.9964" style="stop-color:#F36F56"/>
				</linearGradient>
				<path style="fill:url(#SVGID_00000069386569954480976520000008386743610745612698_);" d="M2128.452,2790.425v82.932
					c0,26.799,167.399,48.521,373.897,48.521c206.499,0,373.898-21.723,373.898-48.521v-82.932H2128.452z"/>
				
					<linearGradient id="SVGID_00000084518372520660789880000013754041266343849355_" gradientUnits="userSpaceOnUse" x1="2498.6252" y1="2759.2434" x2="2543.979" y2="3138.9216">
					<stop  offset="0" style="stop-color:#FFDB44"/>
					<stop  offset="1" style="stop-color:#FEEF06"/>
				</linearGradient>
				<path style="fill:url(#SVGID_00000084518372520660789880000013754041266343849355_);" d="M2876.247,2790.425
					c0,26.798-167.399,48.522-373.898,48.522c-206.497,0-373.897-21.724-373.897-48.522s167.399-48.521,373.897-48.521
					C2708.848,2741.903,2876.247,2763.627,2876.247,2790.425z"/>
				
					<linearGradient id="SVGID_00000144297314331006645720000001018040161672331138_" gradientUnits="userSpaceOnUse" x1="2496.6528" y1="2742.3115" x2="2510.5818" y2="2858.9163">
					<stop  offset="0" style="stop-color:#FFDB44"/>
					<stop  offset="1" style="stop-color:#FEEF06"/>
				</linearGradient>
				<path style="fill:url(#SVGID_00000144297314331006645720000001018040161672331138_);" d="M2502.349,2842.292
					c-182.881,0-374.115-17.468-374.115-51.159c0-1.851,0.66-5.102,2.51-5.102s1.054,2.544,1.054,4.394
					c0,21.367,152.18,45.172,370.55,45.172c218.37,0,370.55-23.805,370.55-45.172c0-1.85,0.316-3.584,2.166-3.584
					c1.85,0,1.404,2.469,1.404,4.319C2876.468,2824.852,2685.229,2842.292,2502.349,2842.292z"/>
				<g>
					<path style="fill:#FCB048;" d="M2467.018,2793.129c3.669-2.54,7.572-5.042,11.751-7.516c4.139-2.47,9.532-4.702,16.062-6.696
						c6.569-1.994,14.785-3.615,24.648-4.874c9.863-1.258,22.195-1.921,36.919-1.994c14.45-0.071,28.003,0.388,40.696,1.378
						c12.654,0.984,23.822,2.465,33.465,4.431c9.604,1.966,17.448,4.398,23.494,7.288c6.006,2.898,9.586,6.215,10.74,9.953
						l42.1,0.427c3.055,0.019,5.758,0.267,8.071,0.746c2.352,0.48,3.491,1.086,3.494,1.821l0.017,3.467l-54.124-0.521
						c-1.898,4.245-6.735,8.129-14.511,11.651c-7.736,3.526-17.629,6.575-29.679,9.156l-19.711-2.741
						c-1.763-0.27-3.214-0.613-4.352-1.03c-1.137-0.414-1.688-0.864-1.69-1.356c-0.003-0.667,1.521-1.426,4.571-2.279
						c3.051-0.857,6.491-1.917,10.323-3.18c3.832-1.259,7.583-2.748,11.295-4.467c3.673-1.715,6.131-3.766,7.411-6.153
						l-127.75-1.266c-3.355,2.47-7.142,4.895-11.281,7.279c-4.179,2.384-9.69,4.531-16.573,6.437
						c-6.882,1.906-15.452,3.453-25.706,4.645c-10.294,1.188-23.174,1.819-38.76,1.896c-11.709,0.058-23.107-0.386-34.273-1.328
						c-11.166-0.945-21.08-2.359-29.744-4.24c-8.664-1.885-15.763-4.214-21.338-6.987c-5.535-2.777-8.645-5.963-9.288-9.568
						l-34.66-0.355c-3.054-0.019-5.758-0.258-8.188-0.721c-2.39-0.463-3.608-1.077-3.612-1.846l-0.017-3.466l47.386,0.451
						c2.097-3.652,6.389-6.836,12.955-9.544c6.566-2.712,14.582-5.124,24.048-7.235l15.872,2.179c4.82,0.677,7.213,1.469,7.218,2.38
						c0.002,0.491-0.975,1.099-2.968,1.827c-2.033,0.728-4.379,1.599-7.115,2.608c-2.697,1.014-5.354,2.198-7.893,3.561
						c-2.578,1.359-4.489,2.899-5.773,4.623L2467.018,2793.129z M2350.106,2797.854c0.951,2.273,3.075,4.229,6.295,5.876
						c3.219,1.651,7.22,3.003,12.043,4.066c4.822,1.062,10.23,1.839,16.223,2.335c6.034,0.496,12.34,0.73,18.919,0.698
						c7.675-0.038,14.37-0.37,20.085-0.992c5.675-0.626,10.684-1.472,15.026-2.544c4.302-1.073,8.095-2.314,11.299-3.732
						c3.204-1.417,6.056-2.953,8.632-4.611L2350.106,2797.854z M2628.213,2794.754c-0.951-2.304-3.271-4.323-6.883-6.058
						c-3.611-1.729-8.24-3.19-13.845-4.368c-5.605-1.182-12.149-2.061-19.632-2.635c-7.444-0.574-15.669-0.842-24.676-0.798
						c-7.988,0.04-14.918,0.399-20.671,1.072c-5.754,0.678-10.762,1.583-15.025,2.728c-4.224,1.141-7.859,2.471-10.789,3.99
						c-2.968,1.519-5.741,3.144-8.277,4.875L2628.213,2794.754z"/>
				</g>
				
					<linearGradient id="SVGID_00000005235246913431344690000015268502704125085831_" gradientUnits="userSpaceOnUse" x1="-840.4974" y1="1281.147" x2="-826.6179" y2="1397.3389" gradientTransform="matrix(-1 0 0 -1 1669.249 4127.8389)">
					<stop  offset="0.0036" style="stop-color:#F36F56"/>
					<stop  offset="0.3059" style="stop-color:#F99C4C"/>
					<stop  offset="0.545" style="stop-color:#FDB946"/>
					<stop  offset="0.6817" style="stop-color:#FFC444"/>
					<stop  offset="0.8038" style="stop-color:#FFC244"/>
					<stop  offset="0.8667" style="stop-color:#FEBA46"/>
					<stop  offset="0.916" style="stop-color:#FCAD49"/>
					<stop  offset="0.958" style="stop-color:#F99A4D"/>
					<stop  offset="0.9955" style="stop-color:#F58152"/>
					<stop  offset="1" style="stop-color:#F57E53"/>
				</linearGradient>
				<path style="fill:url(#SVGID_00000005235246913431344690000015268502704125085831_);" d="M2502.4,2747.156
					c-166.715,0-340.301,14.67-368.068,43.068c1.087,1.003,2.097,2.072,3.036,3.196c23.403-19.717,166.737-39.569,365.032-39.569
					c203.385,0,349.018,20.886,366.659,41.089c0.866-1.108,1.793-2.169,2.796-3.168
					C2848.921,2762.368,2672.076,2747.156,2502.4,2747.156z"/>
			</g>
			<g>
				
					<linearGradient id="SVGID_00000084508785950340831850000008064024354054673572_" gradientUnits="userSpaceOnUse" x1="1960.5829" y1="2769.0425" x2="2820.8767" y2="2769.0425">
					<stop  offset="0" style="stop-color:#F57E53"/>
					<stop  offset="0.0045" style="stop-color:#F58152"/>
					<stop  offset="0.042" style="stop-color:#F99A4D"/>
					<stop  offset="0.084" style="stop-color:#FCAD49"/>
					<stop  offset="0.1333" style="stop-color:#FEBA46"/>
					<stop  offset="0.1962" style="stop-color:#FFC244"/>
					<stop  offset="0.3183" style="stop-color:#FFC444"/>
					<stop  offset="0.455" style="stop-color:#FDB946"/>
					<stop  offset="0.6941" style="stop-color:#F99C4C"/>
					<stop  offset="0.9964" style="stop-color:#F36F56"/>
				</linearGradient>
				<path style="fill:url(#SVGID_00000084508785950340831850000008064024354054673572_);" d="M2024.51,2703.315v82.932
					c0,26.799,167.4,48.522,373.898,48.522c206.498,0,373.897-21.724,373.897-48.522v-82.932H2024.51z"/>
				
					<linearGradient id="SVGID_00000015338183473087350570000006766129657950568321_" gradientUnits="userSpaceOnUse" x1="2394.6833" y1="2672.1335" x2="2440.0371" y2="3051.8108">
					<stop  offset="0" style="stop-color:#FFDB44"/>
					<stop  offset="1" style="stop-color:#FEEF06"/>
				</linearGradient>
				
					<ellipse style="fill:url(#SVGID_00000015338183473087350570000006766129657950568321_);" cx="2398.408" cy="2703.315" rx="373.898" ry="48.522"/>
				
					<linearGradient id="SVGID_00000062907064057594240470000018411784439565355432_" gradientUnits="userSpaceOnUse" x1="2392.7112" y1="2655.2012" x2="2406.6401" y2="2771.8064">
					<stop  offset="0" style="stop-color:#FFDB44"/>
					<stop  offset="1" style="stop-color:#FEEF06"/>
				</linearGradient>
				<path style="fill:url(#SVGID_00000062907064057594240470000018411784439565355432_);" d="M2398.407,2755.183
					c-182.88,0-374.115-17.468-374.115-51.159c0-1.85,0.661-5.102,2.51-5.102c1.851,0,1.055,2.543,1.055,4.394
					c0,21.367,152.18,45.173,370.55,45.173s370.55-23.806,370.55-45.173c0-1.851,0.316-3.584,2.165-3.584
					c1.851,0,1.405,2.469,1.405,4.319C2772.527,2737.742,2581.287,2755.183,2398.407,2755.183z"/>
				<g>
					<path style="fill:#FCB048;" d="M2363.076,2706.02c3.669-2.54,7.573-5.043,11.75-7.517c4.139-2.469,9.533-4.702,16.063-6.695
						c6.569-1.994,14.785-3.616,24.647-4.874c9.862-1.259,22.195-1.922,36.92-1.994c14.45-0.07,28.001,0.389,40.695,1.378
						c12.654,0.986,23.822,2.465,33.466,4.431c9.604,1.966,17.448,4.398,23.493,7.288c6.005,2.898,9.586,6.215,10.74,9.954
						l42.1,0.427c3.054,0.019,5.758,0.266,8.071,0.746c2.352,0.48,3.49,1.086,3.494,1.821l0.017,3.466l-54.123-0.521
						c-1.898,4.245-6.734,8.129-14.51,11.65c-7.737,3.527-17.63,6.575-29.679,9.156l-19.711-2.742
						c-1.763-0.269-3.214-0.612-4.351-1.03c-1.138-0.414-1.689-0.864-1.691-1.356c-0.003-0.666,1.52-1.426,4.571-2.279
						c3.051-0.857,6.491-1.917,10.323-3.179c3.831-1.259,7.583-2.747,11.296-4.468c3.672-1.714,6.129-3.766,7.41-6.153
						l-127.749-1.267c-3.355,2.47-7.142,4.896-11.282,7.279c-4.178,2.384-9.69,4.531-16.572,6.438
						c-6.884,1.906-15.452,3.452-25.707,4.644c-10.293,1.188-23.174,1.819-38.76,1.895c-11.708,0.058-23.107-0.386-34.272-1.327
						c-11.166-0.946-21.081-2.358-29.744-4.24c-8.664-1.885-15.763-4.214-21.338-6.986c-5.535-2.777-8.644-5.964-9.288-9.568
						l-34.66-0.356c-3.055-0.019-5.758-0.259-8.188-0.72c-2.392-0.463-3.609-1.077-3.612-1.846l-0.017-3.466l47.387,0.451
						c2.097-3.652,6.389-6.837,12.955-9.545c6.566-2.712,14.582-5.124,24.049-7.235l15.871,2.179c4.82,0.677,7.213,1.469,7.217,2.38
						c0.003,0.491-0.973,1.099-2.968,1.827c-2.032,0.728-4.378,1.599-7.114,2.607c-2.698,1.014-5.355,2.198-7.894,3.561
						c-2.577,1.359-4.489,2.899-5.773,4.624L2363.076,2706.02z M2246.164,2710.743c0.951,2.274,3.075,4.23,6.295,5.876
						c3.219,1.651,7.22,3.004,12.042,4.066c4.822,1.062,10.23,1.839,16.225,2.335c6.032,0.496,12.339,0.73,18.918,0.698
						c7.676-0.038,14.37-0.369,20.085-0.992c5.676-0.626,10.684-1.471,15.025-2.544c4.302-1.073,8.095-2.314,11.299-3.732
						s6.056-2.953,8.632-4.611L2246.164,2710.743z M2524.271,2707.644c-0.951-2.304-3.272-4.322-6.883-6.057
						c-3.612-1.731-8.239-3.192-13.845-4.369c-5.606-1.182-12.151-2.06-19.633-2.635c-7.443-0.574-15.668-0.843-24.675-0.798
						c-7.989,0.039-14.918,0.398-20.672,1.072c-5.753,0.678-10.761,1.583-15.024,2.729c-4.223,1.141-7.859,2.471-10.789,3.99
						c-2.969,1.518-5.742,3.144-8.279,4.875L2524.271,2707.644z"/>
				</g>
				
					<linearGradient id="SVGID_00000128463582639300235020000005382842329228337327_" gradientUnits="userSpaceOnUse" x1="-736.5562" y1="1368.2577" x2="-722.6768" y2="1484.4486" gradientTransform="matrix(-1 0 0 -1 1669.249 4127.8389)">
					<stop  offset="0.0036" style="stop-color:#F36F56"/>
					<stop  offset="0.3059" style="stop-color:#F99C4C"/>
					<stop  offset="0.545" style="stop-color:#FDB946"/>
					<stop  offset="0.6817" style="stop-color:#FFC444"/>
					<stop  offset="0.8038" style="stop-color:#FFC244"/>
					<stop  offset="0.8667" style="stop-color:#FEBA46"/>
					<stop  offset="0.916" style="stop-color:#FCAD49"/>
					<stop  offset="0.958" style="stop-color:#F99A4D"/>
					<stop  offset="0.9955" style="stop-color:#F58152"/>
					<stop  offset="1" style="stop-color:#F57E53"/>
				</linearGradient>
				<path style="fill:url(#SVGID_00000128463582639300235020000005382842329228337327_);" d="M2398.459,2660.046
					c-166.715,0-340.301,14.67-368.067,43.069c1.087,1.002,2.096,2.071,3.035,3.195c23.404-19.717,166.738-39.569,365.033-39.569
					c203.385,0,349.017,20.886,366.658,41.089c0.866-1.108,1.793-2.169,2.796-3.167
					C2744.98,2675.258,2568.135,2660.046,2398.459,2660.046z"/>
			</g>
			<g>
				
					<linearGradient id="SVGID_00000003786605651194628490000003987447314457920644_" gradientUnits="userSpaceOnUse" x1="2050.2708" y1="2682.187" x2="2910.5647" y2="2682.187">
					<stop  offset="0" style="stop-color:#F57E53"/>
					<stop  offset="0.0045" style="stop-color:#F58152"/>
					<stop  offset="0.042" style="stop-color:#F99A4D"/>
					<stop  offset="0.084" style="stop-color:#FCAD49"/>
					<stop  offset="0.1333" style="stop-color:#FEBA46"/>
					<stop  offset="0.1962" style="stop-color:#FFC244"/>
					<stop  offset="0.3183" style="stop-color:#FFC444"/>
					<stop  offset="0.455" style="stop-color:#FDB946"/>
					<stop  offset="0.6941" style="stop-color:#F99C4C"/>
					<stop  offset="0.9964" style="stop-color:#F36F56"/>
				</linearGradient>
				<path style="fill:url(#SVGID_00000003786605651194628490000003987447314457920644_);" d="M2114.198,2616.46v82.933
					c0,26.798,167.399,48.521,373.897,48.521c206.498,0,373.898-21.723,373.898-48.521v-82.933H2114.198z"/>
				
					<linearGradient id="SVGID_00000015333299870302415090000017947412401165079711_" gradientUnits="userSpaceOnUse" x1="2484.3706" y1="2585.2781" x2="2529.7244" y2="2964.9561">
					<stop  offset="0" style="stop-color:#FFDB44"/>
					<stop  offset="1" style="stop-color:#FEEF06"/>
				</linearGradient>
				<path style="fill:url(#SVGID_00000015333299870302415090000017947412401165079711_);" d="M2861.993,2616.46
					c0,26.798-167.4,48.522-373.897,48.522s-373.898-21.724-373.898-48.522c0-26.797,167.4-48.522,373.898-48.522
					S2861.993,2589.662,2861.993,2616.46z"/>
				
					<linearGradient id="SVGID_00000085934079041614899160000008669562324294403726_" gradientUnits="userSpaceOnUse" x1="2482.3987" y1="2568.3459" x2="2496.3276" y2="2684.9512">
					<stop  offset="0" style="stop-color:#FFDB44"/>
					<stop  offset="1" style="stop-color:#FEEF06"/>
				</linearGradient>
				<path style="fill:url(#SVGID_00000085934079041614899160000008669562324294403726_);" d="M2488.094,2668.328
					c-182.88,0-374.115-17.468-374.115-51.159c0-1.85,0.66-5.102,2.51-5.102s1.054,2.544,1.054,4.394
					c0,21.367,152.18,45.173,370.55,45.173s370.55-23.805,370.55-45.173c0-1.85,0.316-3.584,2.165-3.584
					c1.851,0,1.405,2.469,1.405,4.319C2862.214,2650.887,2670.975,2668.328,2488.094,2668.328z"/>
				<g>
					<path style="fill:#FCB048;" d="M2452.763,2619.165c3.669-2.54,7.573-5.043,11.75-7.517c4.139-2.47,9.533-4.701,16.063-6.696
						c6.569-1.993,14.785-3.615,24.648-4.874c9.862-1.258,22.195-1.922,36.919-1.993c14.45-0.071,28.002,0.389,40.695,1.377
						c12.654,0.986,23.822,2.465,33.466,4.431c9.604,1.966,17.448,4.398,23.493,7.288c6.005,2.898,9.586,6.215,10.74,9.954
						l42.1,0.426c3.055,0.02,5.758,0.267,8.071,0.747c2.352,0.479,3.491,1.086,3.494,1.821l0.017,3.466l-54.123-0.521
						c-1.898,4.245-6.735,8.129-14.511,11.651c-7.737,3.525-17.63,6.574-29.678,9.156l-19.712-2.741
						c-1.763-0.269-3.214-0.612-4.351-1.03c-1.138-0.413-1.688-0.864-1.691-1.355c-0.003-0.667,1.521-1.427,4.571-2.28
						c3.05-0.857,6.491-1.917,10.323-3.18c3.831-1.258,7.584-2.746,11.296-4.466c3.673-1.715,6.13-3.766,7.41-6.153l-127.75-1.267
						c-3.355,2.47-7.142,4.895-11.282,7.279c-4.178,2.385-9.69,4.532-16.572,6.437c-6.884,1.907-15.452,3.453-25.706,4.645
						c-10.294,1.188-23.174,1.819-38.761,1.896c-11.709,0.057-23.107-0.387-34.272-1.328c-11.166-0.945-21.081-2.358-29.744-4.239
						c-8.664-1.885-15.763-4.215-21.338-6.987c-5.536-2.777-8.644-5.963-9.288-9.567l-34.66-0.356
						c-3.055-0.02-5.758-0.258-8.188-0.72c-2.392-0.463-3.608-1.077-3.612-1.846l-0.017-3.467l47.386,0.451
						c2.097-3.652,6.389-6.836,12.955-9.544c6.565-2.713,14.582-5.124,24.048-7.235l15.871,2.179
						c4.82,0.677,7.213,1.469,7.217,2.379c0.003,0.491-0.973,1.099-2.968,1.827c-2.032,0.728-4.378,1.599-7.114,2.609
						c-2.698,1.013-5.354,2.197-7.893,3.561c-2.578,1.359-4.489,2.899-5.773,4.624L2452.763,2619.165z M2335.852,2623.888
						c0.95,2.274,3.075,4.229,6.295,5.877c3.219,1.652,7.22,3.004,12.042,4.066c4.823,1.061,10.23,1.839,16.225,2.335
						c6.033,0.496,12.339,0.73,18.918,0.698c7.676-0.037,14.37-0.369,20.085-0.992c5.675-0.626,10.684-1.472,15.025-2.544
						c4.303-1.073,8.095-2.314,11.299-3.731c3.204-1.418,6.056-2.954,8.632-4.613L2335.852,2623.888z M2613.958,2620.789
						c-0.951-2.303-3.271-4.323-6.882-6.057c-3.612-1.731-8.24-3.192-13.845-4.369c-5.606-1.183-12.151-2.061-19.633-2.635
						c-7.443-0.575-15.668-0.843-24.675-0.798c-7.989,0.039-14.918,0.398-20.672,1.071c-5.753,0.679-10.761,1.583-15.024,2.729
						c-4.224,1.14-7.859,2.47-10.789,3.989c-2.969,1.519-5.741,3.145-8.279,4.875L2613.958,2620.789z"/>
				</g>
				
					<linearGradient id="SVGID_00000183209733518435789040000014201616794487306880_" gradientUnits="userSpaceOnUse" x1="-826.2435" y1="1455.1128" x2="-812.3641" y2="1571.3037" gradientTransform="matrix(-1 0 0 -1 1669.249 4127.8389)">
					<stop  offset="0.0036" style="stop-color:#F36F56"/>
					<stop  offset="0.3059" style="stop-color:#F99C4C"/>
					<stop  offset="0.545" style="stop-color:#FDB946"/>
					<stop  offset="0.6817" style="stop-color:#FFC444"/>
					<stop  offset="0.8038" style="stop-color:#FFC244"/>
					<stop  offset="0.8667" style="stop-color:#FEBA46"/>
					<stop  offset="0.916" style="stop-color:#FCAD49"/>
					<stop  offset="0.958" style="stop-color:#F99A4D"/>
					<stop  offset="0.9955" style="stop-color:#F58152"/>
					<stop  offset="1" style="stop-color:#F57E53"/>
				</linearGradient>
				<path style="fill:url(#SVGID_00000183209733518435789040000014201616794487306880_);" d="M2488.146,2573.19
					c-166.715,0-340.302,14.67-368.067,43.069c1.087,1.001,2.096,2.07,3.034,3.196c23.403-19.718,166.739-39.57,365.033-39.57
					c203.385,0,349.017,20.886,366.658,41.089c0.866-1.108,1.794-2.169,2.796-3.167
					C2834.668,2588.403,2657.822,2573.19,2488.146,2573.19z"/>
			</g>
			<g>
				
					<linearGradient id="SVGID_00000182506993269103274270000004095986553026585784_" gradientUnits="userSpaceOnUse" x1="2003.6207" y1="2595.0769" x2="2863.9138" y2="2595.0769">
					<stop  offset="0" style="stop-color:#F57E53"/>
					<stop  offset="0.0045" style="stop-color:#F58152"/>
					<stop  offset="0.042" style="stop-color:#F99A4D"/>
					<stop  offset="0.084" style="stop-color:#FCAD49"/>
					<stop  offset="0.1333" style="stop-color:#FEBA46"/>
					<stop  offset="0.1962" style="stop-color:#FFC244"/>
					<stop  offset="0.3183" style="stop-color:#FFC444"/>
					<stop  offset="0.455" style="stop-color:#FDB946"/>
					<stop  offset="0.6941" style="stop-color:#F99C4C"/>
					<stop  offset="0.9964" style="stop-color:#F36F56"/>
				</linearGradient>
				<path style="fill:url(#SVGID_00000182506993269103274270000004095986553026585784_);" d="M2067.548,2529.35v82.932
					c0,26.799,167.399,48.521,373.897,48.521c206.498,0,373.897-21.723,373.897-48.521v-82.932H2067.548z"/>
				
					<linearGradient id="SVGID_00000114049327572960515520000006513234248287932605_" gradientUnits="userSpaceOnUse" x1="2437.7209" y1="2498.1682" x2="2483.0747" y2="2877.8467">
					<stop  offset="0" style="stop-color:#FFDB44"/>
					<stop  offset="1" style="stop-color:#FEEF06"/>
				</linearGradient>
				<path style="fill:url(#SVGID_00000114049327572960515520000006513234248287932605_);" d="M2815.343,2529.35
					c0,26.798-167.399,48.522-373.898,48.522c-206.498,0-373.897-21.724-373.897-48.522c0-26.798,167.399-48.522,373.897-48.522
					C2647.944,2480.828,2815.343,2502.552,2815.343,2529.35z"/>
				
					<linearGradient id="SVGID_00000076596613588283971640000005349284921953989811_" gradientUnits="userSpaceOnUse" x1="2435.7488" y1="2481.2354" x2="2449.6777" y2="2597.8413">
					<stop  offset="0" style="stop-color:#FFDB44"/>
					<stop  offset="1" style="stop-color:#FEEF06"/>
				</linearGradient>
				<path style="fill:url(#SVGID_00000076596613588283971640000005349284921953989811_);" d="M2441.445,2581.218
					c-182.881,0-374.115-17.468-374.115-51.16c0-1.85,0.66-5.103,2.51-5.103s1.055,2.544,1.055,4.395
					c0,21.367,152.18,45.173,370.55,45.173c218.369,0,370.549-23.806,370.549-45.173c0-1.851,0.316-3.584,2.166-3.584
					c1.851,0,1.404,2.469,1.404,4.32C2815.564,2563.777,2624.325,2581.218,2441.445,2581.218z"/>
				<g>
					<path style="fill:#FCB048;" d="M2406.114,2532.054c3.668-2.54,7.572-5.042,11.75-7.516c4.139-2.469,9.532-4.702,16.062-6.696
						c6.569-1.994,14.785-3.616,24.648-4.874c9.862-1.258,22.195-1.921,36.919-1.993c14.451-0.071,28.002,0.388,40.695,1.377
						c12.654,0.986,23.822,2.465,33.465,4.431c9.604,1.966,17.449,4.399,23.494,7.288c6.005,2.899,9.585,6.216,10.74,9.955
						l42.1,0.426c3.054,0.019,5.758,0.266,8.071,0.747c2.352,0.48,3.49,1.085,3.494,1.82l0.017,3.467l-54.124-0.521
						c-1.898,4.246-6.734,8.129-14.51,11.651c-7.737,3.526-17.63,6.575-29.679,9.156l-19.711-2.742
						c-1.763-0.269-3.214-0.612-4.352-1.03c-1.138-0.413-1.688-0.864-1.69-1.355c-0.003-0.667,1.52-1.427,4.57-2.28
						c3.05-0.856,6.492-1.917,10.323-3.179c3.832-1.259,7.584-2.747,11.295-4.467c3.673-1.715,6.131-3.766,7.411-6.153
						l-127.749-1.267c-3.355,2.469-7.142,4.895-11.282,7.279c-4.178,2.384-9.69,4.532-16.573,6.438
						c-6.882,1.906-15.452,3.452-25.706,4.644c-10.293,1.188-23.174,1.819-38.76,1.896c-11.709,0.056-23.107-0.387-34.273-1.329
						c-11.165-0.946-21.08-2.359-29.744-4.24c-8.663-1.885-15.763-4.215-21.337-6.987c-5.536-2.776-8.645-5.963-9.289-9.567
						l-34.66-0.356c-3.054-0.019-5.758-0.257-8.188-0.72c-2.391-0.462-3.608-1.077-3.612-1.845l-0.017-3.467l47.387,0.451
						c2.097-3.652,6.389-6.836,12.954-9.543c6.566-2.713,14.582-5.125,24.049-7.236l15.871,2.179c4.82,0.677,7.213,1.469,7.218,2.38
						c0.003,0.492-0.973,1.099-2.968,1.827c-2.033,0.729-4.378,1.599-7.115,2.609c-2.697,1.013-5.354,2.197-7.893,3.561
						c-2.577,1.359-4.489,2.898-5.773,4.623L2406.114,2532.054z M2289.202,2536.778c0.951,2.273,3.075,4.229,6.294,5.876
						c3.219,1.652,7.221,3.005,12.043,4.066c4.822,1.062,10.23,1.839,16.224,2.336c6.033,0.496,12.339,0.73,18.918,0.698
						c7.676-0.038,14.37-0.369,20.086-0.992c5.675-0.626,10.683-1.471,15.025-2.545c4.302-1.072,8.095-2.313,11.299-3.731
						c3.204-1.417,6.055-2.953,8.632-4.611L2289.202,2536.778z M2567.309,2533.678c-0.951-2.303-3.272-4.322-6.883-6.057
						c-3.612-1.731-8.24-3.191-13.845-4.369c-5.606-1.181-12.151-2.06-19.633-2.635c-7.444-0.574-15.668-0.842-24.676-0.797
						c-7.988,0.038-14.918,0.397-20.671,1.071c-5.753,0.678-10.762,1.583-15.025,2.728c-4.224,1.141-7.859,2.471-10.788,3.99
						c-2.969,1.519-5.741,3.145-8.278,4.875L2567.309,2533.678z"/>
				</g>
				
					<linearGradient id="SVGID_00000142150093938019181170000000876857715231267731_" gradientUnits="userSpaceOnUse" x1="-779.5938" y1="1542.2225" x2="-765.7143" y2="1658.4143" gradientTransform="matrix(-1 0 0 -1 1669.249 4127.8389)">
					<stop  offset="0.0036" style="stop-color:#F36F56"/>
					<stop  offset="0.3059" style="stop-color:#F99C4C"/>
					<stop  offset="0.545" style="stop-color:#FDB946"/>
					<stop  offset="0.6817" style="stop-color:#FFC444"/>
					<stop  offset="0.8038" style="stop-color:#FFC244"/>
					<stop  offset="0.8667" style="stop-color:#FEBA46"/>
					<stop  offset="0.916" style="stop-color:#FCAD49"/>
					<stop  offset="0.958" style="stop-color:#F99A4D"/>
					<stop  offset="0.9955" style="stop-color:#F58152"/>
					<stop  offset="1" style="stop-color:#F57E53"/>
				</linearGradient>
				<path style="fill:url(#SVGID_00000142150093938019181170000000876857715231267731_);" d="M2441.496,2486.08
					c-166.714,0-340.302,14.67-368.067,43.069c1.087,1.002,2.096,2.071,3.035,3.196c23.403-19.718,166.738-39.569,365.032-39.569
					c203.385,0,349.018,20.886,366.659,41.089c0.866-1.108,1.793-2.169,2.796-3.168
					C2788.017,2501.293,2611.172,2486.08,2441.496,2486.08z"/>
			</g>
			<g>
				
					<linearGradient id="SVGID_00000152250052433984403270000017935930001162706621_" gradientUnits="userSpaceOnUse" x1="2642.5554" y1="1122.7168" x2="3502.8535" y2="1122.7168" gradientTransform="matrix(0.5796 0.8149 -0.8149 0.5796 2214.3765 -230.3409)">
					<stop  offset="0" style="stop-color:#F57E53"/>
					<stop  offset="0.0045" style="stop-color:#F58152"/>
					<stop  offset="0.042" style="stop-color:#F99A4D"/>
					<stop  offset="0.084" style="stop-color:#FCAD49"/>
					<stop  offset="0.1333" style="stop-color:#FEBA46"/>
					<stop  offset="0.1962" style="stop-color:#FFC244"/>
					<stop  offset="0.3183" style="stop-color:#FFC444"/>
					<stop  offset="0.455" style="stop-color:#FDB946"/>
					<stop  offset="0.6941" style="stop-color:#F99C4C"/>
					<stop  offset="0.9964" style="stop-color:#F36F56"/>
				</linearGradient>
				<path style="fill:url(#SVGID_00000152250052433984403270000017935930001162706621_);" d="M2921.698,2587.814l-67.58,48.07
					c-21.837,15.533,57.49,164.535,177.181,332.808c119.691,168.271,234.423,292.091,256.261,276.558l67.58-48.07L2921.698,2587.814
					z"/>
				
					<linearGradient id="SVGID_00000098210769825484788040000010167734026323456677_" gradientUnits="userSpaceOnUse" x1="3076.6572" y1="1025.8179" x2="3122.0054" y2="1405.4485" gradientTransform="matrix(0.5796 0.8149 -0.8149 0.5796 2214.3765 -230.3409)">
					<stop  offset="0" style="stop-color:#FFDB44"/>
					<stop  offset="1" style="stop-color:#FEEF06"/>
				</linearGradient>
				<path style="fill:url(#SVGID_00000098210769825484788040000010167734026323456677_);" d="M3355.141,3197.179
					c-21.836,15.532-136.569-108.287-256.26-276.558c-119.692-168.271-199.019-317.274-177.182-332.807
					c21.837-15.533,136.57,108.287,256.26,276.558C3297.651,3032.643,3376.979,3181.646,3355.141,3197.179z"/>
				
					<linearGradient id="SVGID_00000042002008534472602890000005086467360946689459_" gradientUnits="userSpaceOnUse" x1="3074.686" y1="1008.8936" x2="3088.6125" y2="1125.4786" gradientTransform="matrix(0.5796 0.8149 -0.8149 0.5796 2214.3765 -230.3409)">
					<stop  offset="0" style="stop-color:#FFDB44"/>
					<stop  offset="1" style="stop-color:#FEEF06"/>
				</linearGradient>
				<path style="fill:url(#SVGID_00000042002008534472602890000005086467360946689459_);" d="M3096.153,2922.56
					c-106.002-149.027-202.613-314.985-175.158-334.513c1.507-1.072,4.54-2.42,5.613-0.912c1.072,1.508-1.462,2.334-2.969,3.406
					c-17.411,12.385,51.397,150.191,177.971,328.136c126.573,177.946,234.179,288.157,251.591,275.772
					c1.507-1.073,3.103-1.82,4.176-0.313c1.073,1.508-1.198,2.575-2.706,3.647
					C3327.215,3217.313,3202.156,3071.585,3096.153,2922.56z"/>
				<g>
					<path style="fill:#FCB048;" d="M3115.737,2865.273c4.197,1.517,8.498,3.248,12.937,5.219c4.412,1.942,9.356,5.042,14.766,9.208
						c5.433,4.198,11.517,9.952,18.258,17.26c6.742,7.308,14.43,16.973,23.024,28.929c8.433,11.735,15.915,23.044,22.466,33.961
						c6.531,10.882,11.8,20.841,15.786,29.838c3.965,8.966,6.53,16.767,7.679,23.369c1.119,6.574,0.491,11.414-1.886,14.521
						l24.055,34.553c1.755,2.501,3.121,4.847,4.07,7.01c0.972,2.195,1.138,3.473,0.541,3.902l-2.814,2.023l-30.947-44.406
						c-4.56,0.914-10.528-0.775-17.905-5.071c-7.357-4.26-15.576-10.554-24.663-18.877l-9.192-17.651
						c-0.803-1.593-1.364-2.974-1.683-4.144c-0.322-1.166-0.275-1.876,0.125-2.163c0.541-0.389,2.043,0.413,4.507,2.403
						c2.467,1.989,5.325,4.178,8.575,6.569c3.246,2.393,6.634,4.587,10.187,6.615c3.527,1.999,6.622,2.812,9.309,2.472
						l-73.015-104.835c-3.957-1.303-8.129-2.983-12.47-4.974c-4.365-2.023-9.31-5.27-14.852-9.774
						c-5.543-4.504-11.77-10.59-18.685-18.255c-6.935-7.7-14.915-17.831-24.011-30.487c-6.834-9.508-13.078-19.053-18.783-28.698
						c-5.701-9.647-10.296-18.545-13.785-26.696c-3.486-8.153-5.703-15.288-6.675-21.437c-0.945-6.12-0.151-10.501,2.413-13.115
						l-19.8-28.45c-1.755-2.5-3.127-4.842-4.158-7.09c-1.009-2.216-1.215-3.564-0.59-4.013l2.815-2.023l27.099,38.877
						c4.191-0.409,9.273,1.244,15.286,5.024c6.015,3.779,12.628,8.913,19.835,15.403l7.424,14.196
						c2.242,4.321,2.983,6.729,2.244,7.261c-0.4,0.287-1.46-0.156-3.209-1.359c-1.771-1.235-3.841-2.641-6.25-4.286
						c-2.389-1.611-4.894-3.089-7.477-4.368c-2.601-1.313-4.964-1.978-7.113-2.024L3115.737,2865.273z M3044.121,2772.741
						c-1.301,2.093-1.663,4.958-1.14,8.536c0.521,3.58,1.738,7.624,3.667,12.17c1.93,4.544,4.432,9.402,7.501,14.575
						c3.093,5.203,6.557,10.477,10.397,15.82c4.479,6.232,8.63,11.496,12.45,15.792c3.8,4.261,7.392,7.852,10.782,10.769
						c3.368,2.885,6.578,5.256,9.59,7.045c3.013,1.789,5.917,3.222,8.762,4.361L3044.121,2772.741z M3207.847,2997.569
						c1.325-2.11,1.626-5.171,0.947-9.12c-0.684-3.945-2.176-8.563-4.465-13.814c-2.286-5.254-5.363-11.096-9.232-17.526
						c-3.846-6.399-8.396-13.256-13.652-20.57c-4.663-6.488-8.971-11.926-12.855-16.225c-3.888-4.295-7.528-7.852-10.932-10.662
						c-3.378-2.781-6.569-4.972-9.505-6.479c-2.958-1.538-5.89-2.857-8.771-3.92L3207.847,2997.569z"/>
				</g>
				
					<linearGradient id="SVGID_00000036941713722081391960000006807781143942336904_" gradientUnits="userSpaceOnUse" x1="-1417.9614" y1="3014.1333" x2="-1404.0845" y2="3130.3035" gradientTransform="matrix(-0.5796 -0.8149 0.8149 -0.5796 -181.2018 3522.6223)">
					<stop  offset="0.0036" style="stop-color:#F36F56"/>
					<stop  offset="0.3059" style="stop-color:#F99C4C"/>
					<stop  offset="0.545" style="stop-color:#FDB946"/>
					<stop  offset="0.6817" style="stop-color:#FFC444"/>
					<stop  offset="0.8038" style="stop-color:#FFC244"/>
					<stop  offset="0.8667" style="stop-color:#FEBA46"/>
					<stop  offset="0.916" style="stop-color:#FCAD49"/>
					<stop  offset="0.958" style="stop-color:#F99A4D"/>
					<stop  offset="0.9955" style="stop-color:#F58152"/>
					<stop  offset="1" style="stop-color:#F57E53"/>
				</linearGradient>
				<path style="fill:url(#SVGID_00000036941713722081391960000006807781143942336904_);" d="M3173.709,2867.457
					c-96.633-135.852-209.202-268.802-248.438-274.967c-0.186,1.467-0.472,2.909-0.844,4.325
					c29.632,7.643,128.89,112.936,243.827,274.523c117.888,165.735,185.28,296.514,179.042,322.6
					c1.405,0.063,2.806,0.203,4.201,0.442C3362.166,3158.649,3272.058,3005.723,3173.709,2867.457z"/>
			</g>
		</g>
		<g>
			
				<linearGradient id="SVGID_00000171696139528338017790000012391940588350634935_" gradientUnits="userSpaceOnUse" x1="-2337.186" y1="1680.7274" x2="-1499.2112" y2="2249.9175" gradientTransform="matrix(-1 0 0 1 230.2854 0)">
				<stop  offset="0" style="stop-color:#311944"/>
				<stop  offset="1" style="stop-color:#6B3976"/>
			</linearGradient>
			<path style="fill:url(#SVGID_00000171696139528338017790000012391940588350634935_);" d="M2521.433,1983.49
				c15.764-10.221,1.4-39.953,0.552-103.816c-1.041-78.259,19.745-92.843,3.05-123.547c-20.414-37.545-71.802-53.082-105.848-53.814
				c-7.509-0.161-9.264-4.262-72.172,12.03c-113.337,29.353-141.709-2.112-192.464,29.318c-49.035,30.368-27.563,63.626-75.18,99.24
				c-77.184,57.727-158.35-4.683-213.513,43.604c-52.177,45.673-53.379,162.039,1.503,225.543
				c62.217,71.991,174.404,50.362,249.599,36.086c15.821-3.002,95.73-19.783,178.931-81.194
				c46.026-33.974,77.629-70.252,97.736-96.984c4.719-5.31,12.082-11.744,21.802-12.78c11.669-1.246,21.043,5.892,25.561,9.021
				C2464.711,1982.624,2505.947,1993.529,2521.433,1983.49z"/>
			
				<linearGradient id="SVGID_00000155129687865336832520000008020395813308901029_" gradientUnits="userSpaceOnUse" x1="2874.1514" y1="3672.1528" x2="2577.0366" y2="1660.437">
				<stop  offset="0" style="stop-color:#FF9085"/>
				<stop  offset="1" style="stop-color:#FB6FBB"/>
			</linearGradient>
			<path style="fill:url(#SVGID_00000155129687865336832520000008020395813308901029_);" d="M2458.092,1940.6
				c20.269-18.467,92.602,17.125,140.538,64.361c56.316,55.496,51.988,100.492,101.135,169.435
				c24.431,34.274,66.32,80.416,140.54,120.834c-5.254,13.134-10.508,26.271-15.761,39.403
				c-35.885,2.159-106.337,0.889-172.063-42.027c-45.657-29.814-69.149-69.318-114.27-147.109
				C2492.928,2067.426,2432.756,1963.684,2458.092,1940.6z"/>
			
				<linearGradient id="SVGID_00000067216170007925633380000001435879721082623678_" gradientUnits="userSpaceOnUse" x1="-2707.7834" y1="2996.1592" x2="-2594.9282" y2="2996.1592" gradientTransform="matrix(-1 0 0 1 230.2854 0)">
				<stop  offset="0" style="stop-color:#311944"/>
				<stop  offset="1" style="stop-color:#6B3976"/>
			</linearGradient>
			<path style="fill:url(#SVGID_00000067216170007925633380000001435879721082623678_);" d="M2914.936,2996.125l-56.465-33.928
				h-25.484c0,0-8.681,32.313-7.696,33.928c11.354,18.604,64.217,32.759,97.205,33.929c5.477,0.194,13.12,0.223,15.095-3.747
				C2940.936,3019.585,2925.994,3005.483,2914.936,2996.125z"/>
			
				<linearGradient id="SVGID_00000054254993372012122130000011829763143505821356_" gradientUnits="userSpaceOnUse" x1="-2654.5603" y1="3040.6348" x2="-2486.1902" y2="2535.5227" gradientTransform="matrix(-1 0 0 1 230.2854 0)">
				<stop  offset="0" style="stop-color:#FFC444"/>
				<stop  offset="0.9964" style="stop-color:#F36F56"/>
			</linearGradient>
			<path style="fill:url(#SVGID_00000054254993372012122130000011829763143505821356_);" d="M2857.471,2925.174
				c-3.63,21.004,0.962,31.955,5.91,38.089c3.483,4.317,6.577,5.546,27.252,23.416c6.837,5.911,10.315,9.077,9.525,10.733
				c-0.904,1.895-6.938,0.867-19.966-2.265c-28.392-6.828-42.659-10.381-46.143-17.214c-3.154-6.187-0.366-8.977-0.549-25.835
				c-0.12-11.098-2.377-20.032-4.151-25.62C2838.723,2926.043,2848.097,2925.61,2857.471,2925.174z"/>
			
				<linearGradient id="SVGID_00000136373434159432255330000014989899486772866479_" gradientUnits="userSpaceOnUse" x1="-2689.8198" y1="2788.9414" x2="-2620.801" y2="2788.9414" gradientTransform="matrix(-1 0 0 1 230.2854 0)">
				<stop  offset="0" style="stop-color:#311944"/>
				<stop  offset="1" style="stop-color:#6B3976"/>
			</linearGradient>
			<path style="fill:url(#SVGID_00000136373434159432255330000014989899486772866479_);" d="M2898.289,2758.71
				c0,0,25.511,30.44,21.359,63.811c-4.151,33.368-48.828-15.418-55.055-31.906c-6.231-16.487-13.507-39.978-13.507-39.978
				S2882.416,2731.145,2898.289,2758.71z"/>
			
				<linearGradient id="SVGID_00000097470078613700259340000013865140883305479609_" gradientUnits="userSpaceOnUse" x1="-2729.821" y1="2978.4543" x2="-2617.1208" y2="2640.3523" gradientTransform="matrix(-1 0 0 1 230.2854 0)">
				<stop  offset="0" style="stop-color:#FFC444"/>
				<stop  offset="0.9964" style="stop-color:#F36F56"/>
			</linearGradient>
			<path style="fill:url(#SVGID_00000097470078613700259340000013865140883305479609_);" d="M2888.558,2711.081
				c0,0-6.921,35.463,6.279,54.18c6.575,9.322,15.442,17.229,12.834,24.817c-1.748,5.085-8.383,8.739-14.004,8.162
				c-10.761-1.105-16.727-17.604-20.935-29.239c-6.214-17.188-9.679-53.966-9.679-53.966L2888.558,2711.081z"/>
			
				<linearGradient id="SVGID_00000114773803519134745620000010379838364936499883_" gradientUnits="userSpaceOnUse" x1="-2590.9534" y1="2408.8337" x2="-2506.8933" y2="2894.8062" gradientTransform="matrix(-1 0 0 1 230.2854 0)">
				<stop  offset="0" style="stop-color:#AB316D"/>
				<stop  offset="1" style="stop-color:#792D3D"/>
			</linearGradient>
			<path style="fill:url(#SVGID_00000114773803519134745620000010379838364936499883_);" d="M2868.226,2740.976
				c7.846-2.857,15.691-5.716,23.536-8.573c12.239-27.955,27.177-73.871,22.188-129.681
				c-12.832-143.525-145.576-219.58-160.323-227.72c-36.167,18.146-72.801,43.745-74.127,76.018
				c-1.665,40.512,53.524,61.926,105.403,121.165C2816.043,2607.742,2849.318,2660.725,2868.226,2740.976z"/>
			
				<linearGradient id="SVGID_00000140737197451275263070000017774974046338605990_" gradientUnits="userSpaceOnUse" x1="-2472.2407" y1="2984.782" x2="-2352.7173" y2="2606.51" gradientTransform="matrix(-1 0 0 1 230.2854 0)">
				<stop  offset="0" style="stop-color:#AB316D"/>
				<stop  offset="1" style="stop-color:#792D3D"/>
			</linearGradient>
			<path style="fill:url(#SVGID_00000140737197451275263070000017774974046338605990_);" d="M2859.769,2941.591
				c25.922-101.26,19.3-183.892,11.822-231.495c-11.303-71.948-34.292-218.297-132.002-272.868
				c-21.337-11.917-51.84-22.589-89.017-55.72c-31.046-27.667-50.779-56.766-62.686-77.266
				c-130.675-38.333-251.205-22.798-304.391,47.284c-6.145,8.098-21.531,25.663-24.507,51.563
				c-6.717,58.438,50.703,128.792,115.134,143.484c81.886,18.672,129.392-65.408,201.942-37.434c20.295,7.825,37.5,27.217,71.912,66
				c43.777,49.337,68.385,94.863,77.695,113.08c27.722,54.245,48.745,94.289,51.811,146.185c0.714,12.09,1.14,36.515,15.301,62.858
				c10.87,20.222,25.604,33.705,36.566,42.035C2839.49,2940.062,2849.629,2940.827,2859.769,2941.591z"/>
			
				<linearGradient id="SVGID_00000025444582509494960050000017352310059816074407_" gradientUnits="userSpaceOnUse" x1="-2472.2302" y1="2984.7864" x2="-2352.7065" y2="2606.5142" gradientTransform="matrix(-1 0 0 1 230.2854 0)">
				<stop  offset="0" style="stop-color:#AB316D"/>
				<stop  offset="1" style="stop-color:#792D3D"/>
			</linearGradient>
			<path style="opacity:0.3;fill:url(#SVGID_00000025444582509494960050000017352310059816074407_);" d="M2258.988,2403.089
				c2.976-25.9,18.362-43.465,24.507-51.563c53.186-70.083,173.716-85.618,304.391-47.284c11.906,20.5,31.639,49.599,62.685,77.266
				c37.177,33.131,67.681,43.803,89.018,55.72c59.666,33.324,91.442,100.861,109.737,164.791
				c-27.145-42.087-50.38-53.276-68.362-53.476c-25.739-0.286-37.239,21.72-67.971,18.716c-32.849-3.21-40.358-30.371-66.985-33.492
				c-7.97-0.934-17.776,0.296-29.555,6.566c-15.717-16.457-27.433-26.199-40.387-31.193
				c-72.55-27.975-120.056,56.106-201.942,37.434C2309.692,2531.882,2252.272,2461.528,2258.988,2403.089z"/>
			
				<linearGradient id="SVGID_00000062174934049647853980000008707734666982496912_" gradientUnits="userSpaceOnUse" x1="-2304.0442" y1="2359.7852" x2="-2220.178" y2="2844.6379" gradientTransform="matrix(-1 0 0 1 230.2854 0)">
				<stop  offset="0" style="stop-color:#AB316D"/>
				<stop  offset="1" style="stop-color:#792D3D"/>
			</linearGradient>
			<path style="fill:url(#SVGID_00000062174934049647853980000008707734666982496912_);" d="M2792.063,2482.518
				c-14.79-0.785-37.566-1.24-65.041,1.474c-130.386,12.885-166.33,77.38-274.092,93.118
				c-25.491,3.724-138.992,20.301-188.151-45.314c-35.292-47.107-29.953-128.276,8.65-160.201
				c16.337-13.511,32.512-13.136,137.142-12.189c39.403,0.357,78.808,0.484,118.21,0.986
				c166.792,2.126,198.689-9.426,229.037,18.162C2771.976,2391.424,2792.677,2419.066,2792.063,2482.518z"/>
			<g>
				<g>
					
						<linearGradient id="SVGID_00000011749181241024350380000004249211608385603733_" gradientUnits="userSpaceOnUse" x1="2646.4221" y1="3705.7886" x2="2349.3074" y2="1694.0718">
						<stop  offset="0" style="stop-color:#FF9085"/>
						<stop  offset="1" style="stop-color:#FB6FBB"/>
					</linearGradient>
					<path style="fill:url(#SVGID_00000011749181241024350380000004249211608385603733_);" d="M2630.282,2313.235
						c0,0-82.744,16.177-169.983,31.694c-98.715,17.539-203.245,34.252-200.48,25.751c28.269-86.704-0.125-143.695-20.469-207.784
						c-12.175-38.132-21.46-78.822-14.238-129.788c20.221-142.498,214.842-85.755,214.842-85.755
						c63.099,2.559,69.99,9.203,75.768,15.599c40.401,44.569,51.585,96.485,51.585,96.485c10.029,46.509-1.32,64.378,0,103.748
						C2568.502,2199.046,2580.139,2250.673,2630.282,2313.235z"/>
				</g>
				
					<linearGradient id="SVGID_00000152942588353025622240000003161425284033085089_" gradientUnits="userSpaceOnUse" x1="2666.0972" y1="3702.8901" x2="2368.9812" y2="1691.1637">
					<stop  offset="0" style="stop-color:#FF9085"/>
					<stop  offset="1" style="stop-color:#FB6FBB"/>
				</linearGradient>
				<path style="fill:url(#SVGID_00000152942588353025622240000003161425284033085089_);" d="M2314.926,2339.232
					c0,0,182.584-48.851,291.423-54.951L2314.926,2339.232z"/>
			</g>
			<g>
				<path style="fill:#FFFFFF;" d="M2397.677,1861.974c1.783,8.33,10.859,53.029-7.429,64.53
					c-3.964,2.494-11.582,3.921-26.817,6.776c-9.975,1.87-18.344,3.016-24.246,3.722c0.852,7.495,3.377,19.695,12.028,30.793
					c24.248,31.109,72.868,23.059,79.801,21.796c24.456-4.453,48.521-12.009,54.333-16.627c8.849-7.031,15.807-12.308,19.922-17.667
					c-9.465-4.573-28.571-16.635-41.394-20.582c-9.583-2.948-18.578-5.052-26.761-6.562c-1.344-8.635-2.691-17.269-4.036-25.905
					C2421.277,1888.823,2409.476,1875.399,2397.677,1861.974z"/>
				<path style="fill:#FFFFFF;" d="M2396.82,1884.25c0,0,3.305,32.757,35.147,38.529c28.511,5.169,49.972-63.727,35.382-81.548
					c-4.867-5.944-16.882-11.6-27.299-11.3c-7.325,0.211-32.07,9.635-35.523,34.394c-4.928-5.192-11.069-6.684-14.096-4.51
					c-3.84,2.758-1.783,10.777-1.316,12.593C2390.73,1878.704,2394.84,1882.605,2396.82,1884.25z"/>
			</g>
			<g>
				
					<linearGradient id="SVGID_00000029762113555171705800000018261582839872877445_" gradientUnits="userSpaceOnUse" x1="-937.6679" y1="2353.4517" x2="-612.0701" y2="2353.4517" gradientTransform="matrix(-1 0 0 1 1740.2787 0)">
					<stop  offset="0" style="stop-color:#40447E"/>
					<stop  offset="0.9964" style="stop-color:#3C3B6B"/>
				</linearGradient>
				<path style="fill:url(#SVGID_00000029762113555171705800000018261582839872877445_);" d="M2669.971,2329.253l-297.89,14.496
					c-4.1,0.201-7.84,2.397-10.01,5.88l-8.243,13.23c-4.102,6.585,0.827,15.079,8.581,14.783l315.536-12.02L2669.971,2329.253z"/>
				
					<linearGradient id="SVGID_00000152979151728748991260000007695085433764988330_" gradientUnits="userSpaceOnUse" x1="-1145.8878" y1="2148.063" x2="-932.4168" y2="2359.8262" gradientTransform="matrix(-1 0 0 1 1740.2787 0)">
					<stop  offset="0" style="stop-color:#40447E"/>
					<stop  offset="0.9964" style="stop-color:#3C3B6B"/>
				</linearGradient>
				<path style="fill:url(#SVGID_00000152979151728748991260000007695085433764988330_);" d="M2979.803,2163.367l-307.754,5.964
					c-9.106,0.177-17.445,5.138-21.944,13.054l-106.572,187.502l325.026-12.949c8.921-0.356,17.062-5.186,21.647-12.847
					l98.738-164.956C2993.148,2172.114,2987.986,2163.208,2979.803,2163.367z"/>
				
					<linearGradient id="SVGID_00000117658515263976073770000009566768953711602573_" gradientUnits="userSpaceOnUse" x1="-1145.8872" y1="2148.0632" x2="-932.4161" y2="2359.8264" gradientTransform="matrix(-1 0 0 1 1740.2787 0)">
					<stop  offset="0" style="stop-color:#40447E"/>
					<stop  offset="0.9964" style="stop-color:#3C3B6B"/>
				</linearGradient>
				<path style="opacity:0.3;fill:url(#SVGID_00000117658515263976073770000009566768953711602573_);" d="M2650.104,2182.386
					c4.5-7.918,12.839-12.879,21.945-13.055l6.745-0.13c1.006,9.934,4.053,19.021,10.133,26.358
					c18.977,22.906,50.505,8.777,74.004,33.018c25.813,26.629,1.967,58.327,25.046,83.111c24.293,26.085,63.575,4.847,108.731,21.54
					l-6.502,10.863c-4.585,7.662-12.726,12.492-21.646,12.848l-325.026,12.949L2650.104,2182.386z"/>
			</g>
			
				<linearGradient id="SVGID_00000163074611880732081260000004216857141297398181_" gradientUnits="userSpaceOnUse" x1="2368.7603" y1="2058.8708" x2="2319.0146" y2="2571.2534">
				<stop  offset="0" style="stop-color:#FF9085"/>
				<stop  offset="1" style="stop-color:#FB6FBB"/>
			</linearGradient>
			<path style="opacity:0.3;fill:url(#SVGID_00000163074611880732081260000004216857141297398181_);" d="M2460.299,2344.929
				c-98.715,17.539-203.245,34.252-200.48,25.751c28.269-86.704-0.125-143.695-20.469-207.784l5.324-33.014
				c0,0,36.728,15.806,45.683,53.648c8.955,37.802-0.701,66.029,35.779,71.518c23.193,3.508,72.509,27.32,105.894,56.372
				c1.773,1.568,3.549,3.136,5.241,4.746C2447.175,2325.45,2455.304,2335.231,2460.299,2344.929z"/>
			<g>
				
					<linearGradient id="SVGID_00000050624755004146513570000009493563524143155352_" gradientUnits="userSpaceOnUse" x1="2460.8127" y1="3733.2036" x2="2163.698" y2="1721.4857">
					<stop  offset="0" style="stop-color:#FF9085"/>
					<stop  offset="1" style="stop-color:#FB6FBB"/>
				</linearGradient>
				<path style="fill:url(#SVGID_00000050624755004146513570000009493563524143155352_);" d="M2396.356,2319.299
					c3.877-10.239,7.755-20.477,11.632-30.717c-42.853-11.75-102.119-29.107-162.908-50.83c-9.521-3.403-20.831-7.616-24.536-17.635
					c-10.395-28.103,55.687-57.224,81.376-118.586c23.758-56.752,10.682-135.508-16.891-144.812
					c-57.376-19.361-260.842,233.904-188.173,340.668C2137.933,2357.74,2264.576,2367.349,2396.356,2319.299z"/>
			</g>
			<path style="fill:#FFFFFF;" d="M2407.988,2288.582c26.902-14.291,59.105,0.358,61.181,1.338c5.91,2.79,14.514,7.761,23.206,16.64
				c0.982,1.341,12.652,17.511,8.401,22.693c-3.407,4.151-16.604,0.71-32.465-9.154c-6.648-0.932-16.546-1.788-28.403-0.696
				c-21.773,2.008-31.748,8.887-39.652,2.95c-5.788-4.346-7.761-13.536-5.678-20.369
				C2396.815,2294.642,2403.434,2291.001,2407.988,2288.582z"/>
		</g>
	</g>
</g>
</svg>
